<?xml version="1.0" encoding="utf-8" ?>
<svg baseProfile="full" height="500" version="1.1" viewBox="0 0 500 500" width="500" xmlns="http://www.w3.org/2000/svg" xmlns:ev="http://www.w3.org/2001/xml-events" xmlns:xlink="http://www.w3.org/1999/xlink"><defs /><path d="M 269.00,323.50 L 268.00,323.50 L 267.00,323.50 L 266.00,323.50 L 265.00,323.50 L 264.00,323.50 L 263.50,323.00 L 263.00,322.50 L 262.00,322.50 L 261.00,322.50 L 260.00,322.50 L 259.00,322.50 L 258.00,322.50 L 257.50,322.00 L 257.00,321.50 L 256.50,321.00 L 256.50,320.00 L 256.00,319.50 L 255.50,319.00 L 255.00,318.50 L 254.50,318.00 L 254.50,317.00 L 254.00,316.50 L 253.50,316.00 L 253.50,315.00 L 253.00,314.50 L 252.50,314.00 L 252.50,313.00 L 252.00,312.50 L 251.50,312.00 L 251.50,311.00 L 251.00,310.50 L 250.50,310.00 L 250.50,309.00 L 250.00,308.50 L 249.50,308.00 L 249.50,307.00 L 249.00,306.50 L 248.50,306.00 L 248.50,305.00 L 248.50,304.00 L 248.00,303.50 L 247.50,303.00 L 247.50,302.00 L 247.00,301.50 L 246.50,301.00 L 246.50,300.00 L 246.00,299.50 L 245.50,299.00 L 245.50,298.00 L 245.00,297.50 L 244.50,297.00 L 244.50,296.00 L 244.00,295.50 L 243.50,295.00 L 243.50,294.00 L 243.50,293.00 L 243.00,292.50 L 242.50,292.00 L 242.00,291.50 L 241.50,291.00 L 241.50,290.00 L 241.50,289.00 L 241.00,288.50 L 240.50,288.00 L 240.50,287.00 L 240.00,286.50 L 239.50,286.00 L 239.50,285.00 L 239.00,284.50 L 238.50,284.00 L 238.50,283.00 L 238.50,282.00 L 238.00,281.50 L 237.50,281.00 L 237.00,280.50 L 236.50,280.00 L 236.50,279.00 L 236.00,278.50 L 235.50,279.00 L 235.50,280.00 L 235.00,280.50 L 234.50,281.00 L 234.00,281.50 L 233.50,282.00 L 233.00,282.50 L 232.50,283.00 L 232.50,284.00 L 232.00,284.50 L 231.50,285.00 L 231.00,285.50 L 230.50,286.00 L 230.00,286.50 L 229.50,287.00 L 229.50,288.00 L 229.00,288.50 L 228.50,289.00 L 228.00,289.50 L 227.50,290.00 L 227.00,290.50 L 226.50,291.00 L 226.00,291.50 L 225.50,292.00 L 225.50,293.00 L 225.00,293.50 L 224.50,294.00 L 224.00,294.50 L 223.50,295.00 L 223.50,296.00 L 223.00,296.50 L 222.00,296.50 L 221.50,297.00 L 221.50,298.00 L 221.00,298.50 L 220.50,299.00 L 220.00,299.50 L 219.50,300.00 L 219.50,301.00 L 219.00,301.50 L 218.50,302.00 L 218.00,302.50 L 217.50,303.00 L 217.00,303.50 L 216.50,304.00 L 216.50,305.00 L 216.00,305.50 L 215.50,306.00 L 215.00,306.50 L 214.50,307.00 L 214.00,307.50 L 213.50,308.00 L 213.00,308.50 L 212.50,309.00 L 212.50,310.00 L 212.00,310.50 L 211.50,311.00 L 211.00,311.50 L 210.50,312.00 L 210.00,312.50 L 209.00,312.50 L 208.50,313.00 L 208.50,314.00 L 208.00,314.50 L 207.50,315.00 L 207.00,315.50 L 206.50,316.00 L 206.00,316.50 L 205.50,317.00 L 205.00,317.50 L 204.00,317.50 L 203.50,318.00 L 203.00,318.50 L 202.50,319.00 L 202.00,319.50 L 201.50,320.00 L 201.00,320.50 L 200.00,320.50 L 199.50,321.00 L 199.00,321.50 L 198.00,321.50 L 197.50,322.00 L 197.00,322.50 L 196.00,322.50 L 195.00,322.50 L 194.00,322.50 L 193.50,322.00 L 193.00,321.50 L 192.50,321.00 L 192.00,320.50 L 191.00,320.50 L 190.50,320.00 L 190.00,319.50 L 189.50,319.00 L 189.50,318.00 L 189.00,317.50 L 188.50,317.00 L 188.00,316.50 L 187.50,316.00 L 187.50,315.00 L 187.50,314.00 L 187.00,313.50 L 186.50,313.00 L 186.50,312.00 L 186.00,311.50 L 185.50,311.00 L 185.50,310.00 L 185.50,309.00 L 185.50,308.00 L 185.50,307.00 L 185.00,306.50 L 184.50,306.00 L 184.50,305.00 L 184.50,304.00 L 184.50,303.00 L 184.50,302.00 L 184.00,301.50 L 183.50,301.00 L 183.50,300.00 L 183.50,299.00 L 183.50,298.00 L 183.50,297.00 L 183.50,296.00 L 183.50,295.00 L 183.50,294.00 L 183.50,293.00 L 183.50,292.00 L 183.50,291.00 L 183.00,290.50 L 182.50,290.00 L 182.50,289.00 L 182.50,288.00 L 182.50,287.00 L 182.50,286.00 L 182.50,285.00 L 182.50,284.00 L 182.50,283.00 L 182.50,282.00 L 182.50,281.00 L 182.50,280.00 L 182.50,279.00 L 182.50,278.00 L 182.00,277.50 L 181.50,277.00 L 181.50,276.00 L 181.50,275.00 L 181.50,274.00 L 181.50,273.00 L 181.50,272.00 L 181.50,271.00 L 181.50,270.00 L 181.50,269.00 L 181.50,268.00 L 181.50,267.00 L 181.50,266.00 L 181.50,265.00 L 181.50,264.00 L 181.00,263.50 L 180.50,263.00 L 180.50,262.00 L 180.50,261.00 L 180.50,260.00 L 180.50,259.00 L 180.50,258.00 L 180.50,257.00 L 180.50,256.00 L 180.50,255.00 L 180.50,254.00 L 180.50,253.00 L 180.00,252.50 L 179.50,252.00 L 179.00,251.50 L 178.50,252.00 L 178.50,253.00 L 178.00,253.50 L 177.50,254.00 L 177.00,254.50 L 176.50,255.00 L 176.00,255.50 L 175.50,256.00 L 175.00,256.50 L 174.50,257.00 L 174.00,257.50 L 173.50,258.00 L 173.50,259.00 L 173.00,259.50 L 172.50,260.00 L 172.00,260.50 L 171.50,261.00 L 171.50,262.00 L 171.00,262.50 L 170.50,263.00 L 170.00,263.50 L 169.50,264.00 L 169.50,265.00 L 169.00,265.50 L 168.50,266.00 L 168.50,267.00 L 168.00,267.50 L 167.50,268.00 L 167.50,269.00 L 167.00,269.50 L 166.50,270.00 L 166.00,270.50 L 165.50,271.00 L 165.00,271.50 L 164.50,272.00 L 164.50,273.00 L 164.00,273.50 L 163.50,274.00 L 163.00,274.50 L 162.00,274.50 L 161.00,274.50 L 160.00,274.50 L 159.50,274.00 L 159.00,273.50 L 158.50,273.00 L 158.00,272.50 L 157.50,272.00 L 157.50,271.00 L 157.50,270.00 L 157.00,269.50 L 156.50,269.00 L 156.50,268.00 L 156.50,267.00 L 156.00,266.50 L 155.50,266.00 L 155.50,265.00 L 155.50,264.00 L 155.50,263.00 L 155.00,262.50 L 154.50,262.00 L 154.50,261.00 L 154.50,260.00 L 154.00,259.50 L 153.50,259.00 L 153.50,258.00 L 153.50,257.00 L 153.50,256.00 L 153.00,255.50 L 152.50,255.00 L 152.50,254.00 L 152.50,253.00 L 152.50,252.00 L 152.00,251.50 L 151.50,251.00 L 151.50,250.00 L 151.50,249.00 L 151.00,248.50 L 150.50,248.00 L 150.50,247.00 L 150.00,246.50 L 149.50,247.00 L 149.50,248.00 L 149.50,249.00 L 149.50,250.00 L 149.00,250.50 L 148.50,251.00 L 148.50,252.00 L 148.50,253.00 L 148.00,253.50 L 147.50,254.00 L 147.50,255.00 L 147.50,256.00 L 147.50,257.00 L 147.00,257.50 L 146.50,258.00 L 146.50,259.00 L 146.50,260.00 L 146.00,260.50 L 145.50,261.00 L 145.50,262.00 L 145.50,263.00 L 145.50,264.00 L 145.50,265.00 L 145.50,266.00 L 145.00,266.50 L 144.50,267.00 L 144.50,268.00 L 144.00,268.50 L 143.50,269.00 L 143.50,270.00 L 143.50,271.00 L 143.50,272.00 L 143.50,273.00 L 143.00,273.50 L 142.50,274.00 L 142.50,275.00 L 142.50,276.00 L 142.00,276.50 L 141.50,277.00 L 141.50,278.00 L 141.50,279.00 L 141.50,280.00 L 141.50,281.00 L 141.50,282.00 L 141.00,282.50 L 140.50,283.00 L 140.50,284.00 L 140.50,285.00 L 140.50,286.00 L 140.00,286.50 L 139.50,287.00 L 139.50,288.00 L 139.50,289.00 L 139.50,290.00 L 139.50,291.00 L 139.50,292.00 L 139.00,292.50 L 138.50,293.00 L 138.50,294.00 L 138.50,295.00 L 138.00,295.50 L 137.50,296.00 L 137.50,297.00 L 137.50,298.00 L 137.50,299.00 L 137.50,300.00 L 137.50,301.00 L 137.00,301.50 L 136.50,302.00 L 136.50,303.00 L 136.50,304.00 L 136.50,305.00 L 136.50,306.00 L 136.00,306.50 L 135.50,307.00 L 135.50,308.00 L 135.50,309.00 L 135.50,310.00 L 135.00,310.50 L 134.00,310.50 L 133.50,310.00 L 133.00,309.50 L 132.00,309.50 L 131.50,309.00 L 131.00,308.50 L 130.00,308.50 L 129.50,308.00 L 129.00,307.50 L 128.50,307.00 L 128.00,306.50 L 127.00,306.50 L 126.50,306.00 L 126.00,305.50 L 125.50,305.00 L 125.00,304.50 L 124.50,304.00 L 124.00,303.50 L 123.00,303.50 L 122.50,303.00 L 122.50,302.00 L 122.50,301.00 L 122.50,300.00 L 122.50,299.00 L 123.00,298.50 L 123.50,298.00 L 123.50,297.00 L 123.50,296.00 L 123.50,295.00 L 123.50,294.00 L 124.00,293.50 L 124.50,293.00 L 124.50,292.00 L 124.50,291.00 L 124.50,290.00 L 124.50,289.00 L 124.50,288.00 L 124.50,287.00 L 124.50,286.00 L 125.00,285.50 L 125.50,285.00 L 125.50,284.00 L 125.50,283.00 L 126.00,282.50 L 126.50,282.00 L 126.50,281.00 L 126.50,280.00 L 126.50,279.00 L 126.50,278.00 L 126.50,277.00 L 126.50,276.00 L 126.50,275.00 L 127.00,274.50 L 127.50,274.00 L 127.50,273.00 L 127.50,272.00 L 128.00,271.50 L 128.50,271.00 L 128.50,270.00 L 128.50,269.00 L 128.50,268.00 L 128.50,267.00 L 129.00,266.50 L 129.50,266.00 L 129.50,265.00 L 129.50,264.00 L 129.50,263.00 L 130.00,262.50 L 130.50,262.00 L 130.50,261.00 L 130.50,260.00 L 131.00,259.50 L 131.50,259.00 L 131.50,258.00 L 131.50,257.00 L 131.50,256.00 L 131.50,255.00 L 132.00,254.50 L 132.50,254.00 L 132.50,253.00 L 133.00,252.50 L 133.50,252.00 L 133.50,251.00 L 133.50,250.00 L 133.50,249.00 L 134.00,248.50 L 134.50,248.00 L 134.50,247.00 L 134.50,246.00 L 135.00,245.50 L 135.50,245.00 L 135.50,244.00 L 135.50,243.00 L 136.00,242.50 L 136.50,242.00 L 136.50,241.00 L 137.00,240.50 L 137.50,240.00 L 137.50,239.00 L 137.50,238.00 L 138.00,237.50 L 138.50,237.00 L 138.50,236.00 L 139.00,235.50 L 139.50,235.00 L 139.50,234.00 L 140.00,233.50 L 140.50,233.00 L 140.50,232.00 L 141.00,231.50 L 141.50,231.00 L 142.00,230.50 L 142.50,230.00 L 143.00,229.50 L 143.50,229.00 L 144.00,228.50 L 145.00,228.50 L 145.50,228.00 L 146.00,227.50 L 147.00,227.50 L 147.50,227.00 L 148.00,226.50 L 149.00,226.50 L 150.00,226.50 L 151.00,226.50 L 152.00,226.50 L 153.00,226.50 L 154.00,226.50 L 154.50,227.00 L 155.00,227.50 L 156.00,227.50 L 156.50,228.00 L 156.50,229.00 L 157.00,229.50 L 158.00,229.50 L 158.50,230.00 L 158.50,231.00 L 159.00,231.50 L 159.50,232.00 L 159.50,233.00 L 160.00,233.50 L 160.50,234.00 L 160.50,235.00 L 160.50,236.00 L 161.00,236.50 L 161.50,237.00 L 161.50,238.00 L 162.00,238.50 L 162.50,239.00 L 162.50,240.00 L 162.50,241.00 L 163.00,241.50 L 163.50,242.00 L 163.50,243.00 L 163.50,244.00 L 164.00,244.50 L 164.50,245.00 L 164.50,246.00 L 164.50,247.00 L 164.50,248.00 L 165.00,248.50 L 165.50,249.00 L 165.50,250.00 L 165.50,251.00 L 165.50,252.00 L 166.00,252.50 L 166.50,253.00 L 167.00,253.50 L 167.50,253.00 L 167.50,252.00 L 168.00,251.50 L 168.50,251.00 L 168.50,250.00 L 169.00,249.50 L 169.50,249.00 L 170.00,248.50 L 170.50,248.00 L 171.00,247.50 L 171.50,247.00 L 171.50,246.00 L 172.00,245.50 L 172.50,245.00 L 172.50,244.00 L 173.00,243.50 L 173.50,243.00 L 174.00,242.50 L 174.50,242.00 L 175.00,241.50 L 175.50,241.00 L 176.00,240.50 L 176.50,240.00 L 176.50,239.00 L 177.00,238.50 L 177.50,238.00 L 178.00,237.50 L 178.50,237.00 L 179.00,236.50 L 179.50,236.00 L 179.50,235.00 L 180.00,234.50 L 180.50,234.00 L 181.00,233.50 L 181.50,233.00 L 182.00,232.50 L 182.50,232.00 L 183.00,231.50 L 183.50,231.00 L 184.00,230.50 L 184.50,230.00 L 185.00,229.50 L 186.00,229.50 L 187.00,229.50 L 187.50,230.00 L 188.00,230.50 L 188.50,231.00 L 189.00,231.50 L 189.50,232.00 L 189.50,233.00 L 190.00,233.50 L 190.50,234.00 L 191.00,234.50 L 191.50,235.00 L 191.50,236.00 L 191.50,237.00 L 191.50,238.00 L 192.00,238.50 L 192.50,239.00 L 192.50,240.00 L 192.50,241.00 L 192.50,242.00 L 193.00,242.50 L 193.50,243.00 L 193.50,244.00 L 193.50,245.00 L 193.50,246.00 L 193.50,247.00 L 193.50,248.00 L 193.50,249.00 L 193.50,250.00 L 193.50,251.00 L 193.50,252.00 L 194.00,252.50 L 194.50,253.00 L 194.50,254.00 L 194.50,255.00 L 194.50,256.00 L 194.50,257.00 L 194.50,258.00 L 194.50,259.00 L 194.50,260.00 L 195.00,260.50 L 195.50,261.00 L 195.50,262.00 L 195.50,263.00 L 195.50,264.00 L 195.50,265.00 L 195.50,266.00 L 195.50,267.00 L 195.50,268.00 L 195.50,269.00 L 195.50,270.00 L 195.50,271.00 L 195.50,272.00 L 195.50,273.00 L 196.00,273.50 L 196.50,274.00 L 196.50,275.00 L 196.50,276.00 L 196.50,277.00 L 196.50,278.00 L 196.50,279.00 L 196.50,280.00 L 196.50,281.00 L 196.50,282.00 L 196.50,283.00 L 197.00,283.50 L 197.50,284.00 L 197.50,285.00 L 197.50,286.00 L 197.50,287.00 L 197.50,288.00 L 197.50,289.00 L 197.50,290.00 L 197.50,291.00 L 197.50,292.00 L 197.50,293.00 L 198.00,293.50 L 198.50,294.00 L 198.50,295.00 L 198.50,296.00 L 198.50,297.00 L 198.50,298.00 L 198.50,299.00 L 199.00,299.50 L 199.50,300.00 L 199.50,301.00 L 199.50,302.00 L 199.50,303.00 L 199.50,304.00 L 199.50,305.00 L 200.00,305.50 L 200.50,306.00 L 200.50,307.00 L 201.00,307.50 L 202.00,307.50 L 202.50,307.00 L 202.50,306.00 L 203.00,305.50 L 204.00,305.50 L 204.50,305.00 L 204.50,304.00 L 205.00,303.50 L 205.50,303.00 L 206.00,302.50 L 206.50,302.00 L 207.00,301.50 L 207.50,301.00 L 208.00,300.50 L 208.50,300.00 L 208.50,299.00 L 209.00,298.50 L 209.50,298.00 L 210.00,297.50 L 210.50,297.00 L 211.00,296.50 L 211.50,296.00 L 212.00,295.50 L 212.50,295.00 L 212.50,294.00 L 213.00,293.50 L 213.50,293.00 L 214.00,292.50 L 214.50,292.00 L 215.00,291.50 L 215.50,291.00 L 216.00,290.50 L 216.50,290.00 L 216.50,289.00 L 217.00,288.50 L 217.50,288.00 L 218.00,287.50 L 218.50,287.00 L 219.00,286.50 L 219.50,286.00 L 219.50,285.00 L 220.00,284.50 L 220.50,284.00 L 221.00,283.50 L 221.50,283.00 L 222.00,282.50 L 222.50,282.00 L 222.50,281.00 L 223.00,280.50 L 223.50,280.00 L 224.00,279.50 L 224.50,279.00 L 225.00,278.50 L 225.50,278.00 L 226.00,277.50 L 226.50,277.00 L 226.50,276.00 L 227.00,275.50 L 227.50,275.00 L 228.00,274.50 L 228.50,274.00 L 228.50,273.00 L 229.00,272.50 L 229.50,272.00 L 230.00,271.50 L 230.50,271.00 L 231.00,270.50 L 231.50,270.00 L 231.50,269.00 L 232.00,268.50 L 232.50,268.00 L 233.00,267.50 L 233.50,267.00 L 234.00,266.50 L 234.50,266.00 L 234.50,265.00 L 235.00,264.50 L 235.50,264.00 L 236.00,263.50 L 236.50,263.00 L 236.50,262.00 L 237.00,261.50 L 237.50,261.00 L 237.50,260.00 L 237.50,259.00 L 237.50,258.00 L 237.50,257.00 L 237.50,256.00 L 237.50,255.00 L 237.50,254.00 L 237.50,253.00 L 237.50,252.00 L 237.50,251.00 L 237.50,250.00 L 237.50,249.00 L 237.50,248.00 L 237.50,247.00 L 237.50,246.00 L 237.50,245.00 L 237.00,244.50 L 236.50,244.00 L 236.50,243.00 L 236.50,242.00 L 236.50,241.00 L 236.50,240.00 L 236.50,239.00 L 237.00,238.50 L 237.50,238.00 L 237.50,237.00 L 237.50,236.00 L 237.50,235.00 L 237.50,234.00 L 237.50,233.00 L 237.50,232.00 L 237.50,231.00 L 237.50,230.00 L 237.50,229.00 L 237.50,228.00 L 237.50,227.00 L 237.50,226.00 L 237.50,225.00 L 237.50,224.00 L 237.50,223.00 L 237.50,222.00 L 237.50,221.00 L 237.50,220.00 L 237.50,219.00 L 237.50,218.00 L 237.50,217.00 L 237.50,216.00 L 237.50,215.00 L 237.50,214.00 L 237.50,213.00 L 237.50,212.00 L 237.50,211.00 L 237.50,210.00 L 237.50,209.00 L 237.50,208.00 L 237.50,207.00 L 237.50,206.00 L 237.50,205.00 L 237.50,204.00 L 237.50,203.00 L 237.50,202.00 L 237.50,201.00 L 237.50,200.00 L 237.50,199.00 L 237.50,198.00 L 237.50,197.00 L 237.50,196.00 L 237.50,195.00 L 237.50,194.00 L 237.50,193.00 L 237.50,192.00 L 237.00,191.50 L 236.50,191.00 L 236.50,190.00 L 236.00,189.50 L 235.50,189.00 L 235.00,188.50 L 234.50,188.00 L 234.00,187.50 L 233.50,187.00 L 233.00,186.50 L 232.00,186.50 L 231.50,186.00 L 231.00,185.50 L 230.50,185.00 L 230.00,184.50 L 229.50,184.00 L 229.00,183.50 L 228.50,183.00 L 228.00,182.50 L 227.50,182.00 L 227.00,181.50 L 226.50,181.00 L 226.00,180.50 L 225.00,180.50 L 224.50,180.00 L 224.00,179.50 L 223.50,179.00 L 223.00,178.50 L 222.50,178.00 L 222.00,177.50 L 221.50,177.00 L 221.00,176.50 L 220.50,176.00 L 220.00,175.50 L 219.50,175.00 L 219.00,174.50 L 218.50,174.00 L 218.00,173.50 L 217.50,173.00 L 217.00,172.50 L 216.50,172.00 L 216.00,171.50 L 215.00,171.50 L 214.50,171.00 L 214.00,170.50 L 213.50,170.00 L 213.00,169.50 L 212.50,169.00 L 212.00,168.50 L 211.50,168.00 L 211.00,167.50 L 210.50,167.00 L 210.00,166.50 L 209.50,166.00 L 209.00,165.50 L 208.00,165.50 L 207.50,165.00 L 207.00,164.50 L 206.50,164.00 L 206.00,163.50 L 205.50,163.00 L 205.00,162.50 L 204.50,162.00 L 204.00,161.50 L 203.50,161.00 L 203.00,160.50 L 202.50,160.00 L 202.00,159.50 L 201.00,159.50 L 200.50,159.00 L 200.00,158.50 L 199.50,158.00 L 199.00,157.50 L 198.50,157.00 L 198.00,156.50 L 197.50,156.00 L 197.00,155.50 L 196.50,155.00 L 196.00,154.50 L 195.50,154.00 L 195.00,153.50 L 194.50,153.00 L 194.00,152.50 L 193.00,152.50 L 192.50,152.00 L 192.50,151.00 L 192.00,150.50 L 191.00,150.50 L 190.50,150.00 L 190.00,149.50 L 189.50,149.00 L 189.00,148.50 L 188.50,148.00 L 188.00,147.50 L 187.50,147.00 L 187.00,146.50 L 186.50,146.00 L 186.00,145.50 L 185.50,145.00 L 185.00,144.50 L 184.50,144.00 L 184.00,143.50 L 183.00,143.50 L 182.50,143.00 L 182.00,142.50 L 181.50,142.00 L 181.00,141.50 L 180.50,141.00 L 180.00,140.50 L 179.50,140.00 L 179.00,139.50 L 178.50,139.00 L 178.00,138.50 L 177.50,138.00 L 177.00,137.50 L 176.50,137.00 L 176.00,136.50 L 175.00,136.50 L 174.50,136.00 L 174.00,135.50 L 173.50,135.00 L 173.00,134.50 L 172.50,135.00 L 172.00,135.50 L 171.50,136.00 L 171.00,136.50 L 170.50,137.00 L 170.00,137.50 L 169.50,138.00 L 169.50,139.00 L 169.00,139.50 L 168.00,139.50 L 167.50,140.00 L 167.50,141.00 L 167.00,141.50 L 166.00,141.50 L 165.50,142.00 L 165.50,143.00 L 165.00,143.50 L 164.50,144.00 L 164.00,144.50 L 163.50,145.00 L 163.00,145.50 L 162.50,146.00 L 162.00,146.50 L 161.50,147.00 L 161.00,147.50 L 160.50,148.00 L 160.00,148.50 L 159.50,149.00 L 159.00,149.50 L 158.50,150.00 L 158.00,150.50 L 157.50,151.00 L 157.00,151.50 L 156.50,152.00 L 156.00,152.50 L 155.50,153.00 L 155.00,153.50 L 154.50,154.00 L 154.00,154.50 L 153.50,155.00 L 153.00,155.50 L 152.50,156.00 L 152.00,156.50 L 151.50,157.00 L 151.00,157.50 L 150.50,158.00 L 150.00,158.50 L 149.50,159.00 L 149.50,160.00 L 149.00,160.50 L 148.50,161.00 L 148.00,161.50 L 147.50,162.00 L 147.00,162.50 L 146.50,163.00 L 146.00,163.50 L 145.50,164.00 L 145.00,164.50 L 144.50,165.00 L 144.00,165.50 L 143.50,166.00 L 143.00,166.50 L 142.50,167.00 L 142.00,167.50 L 141.50,168.00 L 141.00,168.50 L 140.50,169.00 L 140.00,169.50 L 139.50,170.00 L 139.00,170.50 L 138.50,171.00 L 138.00,171.50 L 137.50,172.00 L 137.00,172.50 L 136.50,173.00 L 136.00,173.50 L 135.50,174.00 L 135.00,174.50 L 134.50,175.00 L 134.00,175.50 L 133.50,176.00 L 133.00,176.50 L 132.50,177.00 L 132.00,177.50 L 131.50,178.00 L 131.00,178.50 L 130.50,179.00 L 130.00,179.50 L 129.50,180.00 L 129.00,180.50 L 128.50,181.00 L 128.00,181.50 L 127.50,182.00 L 127.00,182.50 L 126.50,183.00 L 126.50,184.00 L 126.00,184.50 L 125.00,184.50 L 124.50,185.00 L 124.50,186.00 L 124.00,186.50 L 123.00,186.50 L 122.50,187.00 L 122.50,188.00 L 122.00,188.50 L 121.00,188.50 L 120.50,189.00 L 120.50,190.00 L 120.00,190.50 L 119.50,191.00 L 119.00,191.50 L 118.50,192.00 L 118.00,192.50 L 117.50,193.00 L 117.00,193.50 L 116.50,194.00 L 116.00,194.50 L 115.50,195.00 L 115.00,195.50 L 114.50,196.00 L 114.00,196.50 L 113.50,197.00 L 113.50,198.00 L 113.50,199.00 L 113.50,200.00 L 113.50,201.00 L 113.50,202.00 L 113.50,203.00 L 113.50,204.00 L 113.50,205.00 L 113.50,206.00 L 113.50,207.00 L 113.50,208.00 L 113.50,209.00 L 113.50,210.00 L 113.50,211.00 L 113.50,212.00 L 113.50,213.00 L 113.50,214.00 L 113.50,215.00 L 113.50,216.00 L 113.50,217.00 L 113.50,218.00 L 113.50,219.00 L 113.50,220.00 L 113.50,221.00 L 113.50,222.00 L 113.50,223.00 L 113.50,224.00 L 113.50,225.00 L 113.50,226.00 L 113.50,227.00 L 113.50,228.00 L 113.50,229.00 L 113.50,230.00 L 113.50,231.00 L 113.50,232.00 L 113.50,233.00 L 113.50,234.00 L 113.50,235.00 L 113.50,236.00 L 113.50,237.00 L 113.50,238.00 L 113.50,239.00 L 113.50,240.00 L 113.50,241.00 L 113.50,242.00 L 113.50,243.00 L 113.50,244.00 L 113.50,245.00 L 113.50,246.00 L 113.50,247.00 L 113.50,248.00 L 113.50,249.00 L 113.50,250.00 L 113.50,251.00 L 113.50,252.00 L 113.50,253.00 L 113.50,254.00 L 113.50,255.00 L 113.50,256.00 L 113.50,257.00 L 113.50,258.00 L 113.50,259.00 L 113.50,260.00 L 113.50,261.00 L 113.50,262.00 L 113.50,263.00 L 113.50,264.00 L 113.50,265.00 L 113.50,266.00 L 113.50,267.00 L 113.50,268.00 L 113.50,269.00 L 113.50,270.00 L 113.50,271.00 L 113.50,272.00 L 113.50,273.00 L 113.50,274.00 L 113.50,275.00 L 113.50,276.00 L 113.50,277.00 L 113.50,278.00 L 113.50,279.00 L 113.50,280.00 L 113.50,281.00 L 113.50,282.00 L 113.50,283.00 L 113.50,284.00 L 113.50,285.00 L 113.50,286.00 L 113.50,287.00 L 113.50,288.00 L 113.50,289.00 L 113.50,290.00 L 113.50,291.00 L 113.50,292.00 L 113.50,293.00 L 113.50,294.00 L 113.00,294.50 L 112.00,294.50 L 111.50,294.00 L 111.00,293.50 L 110.50,293.00 L 110.00,292.50 L 109.50,292.00 L 109.00,291.50 L 108.50,291.00 L 108.00,290.50 L 107.50,290.00 L 107.00,289.50 L 106.00,289.50 L 105.50,289.00 L 105.00,288.50 L 104.50,288.00 L 104.50,287.00 L 104.00,286.50 L 103.50,286.00 L 103.50,285.00 L 103.50,284.00 L 103.50,283.00 L 103.50,282.00 L 103.50,281.00 L 103.50,280.00 L 103.50,279.00 L 103.50,278.00 L 103.50,277.00 L 103.50,276.00 L 103.50,275.00 L 103.50,274.00 L 103.50,273.00 L 103.50,272.00 L 103.50,271.00 L 103.50,270.00 L 103.50,269.00 L 103.50,268.00 L 103.50,267.00 L 103.50,266.00 L 103.50,265.00 L 103.50,264.00 L 103.50,263.00 L 103.50,262.00 L 103.50,261.00 L 103.50,260.00 L 103.50,259.00 L 103.50,258.00 L 103.50,257.00 L 103.50,256.00 L 103.50,255.00 L 103.50,254.00 L 103.50,253.00 L 103.50,252.00 L 103.50,251.00 L 103.50,250.00 L 103.50,249.00 L 103.50,248.00 L 103.50,247.00 L 103.50,246.00 L 103.50,245.00 L 103.50,244.00 L 103.50,243.00 L 103.50,242.00 L 103.50,241.00 L 103.50,240.00 L 103.50,239.00 L 103.50,238.00 L 103.50,237.00 L 103.50,236.00 L 103.50,235.00 L 103.50,234.00 L 103.50,233.00 L 103.50,232.00 L 103.50,231.00 L 103.50,230.00 L 103.50,229.00 L 103.50,228.00 L 103.50,227.00 L 103.50,226.00 L 103.50,225.00 L 103.50,224.00 L 103.50,223.00 L 103.50,222.00 L 103.50,221.00 L 103.50,220.00 L 103.50,219.00 L 103.50,218.00 L 103.50,217.00 L 103.50,216.00 L 104.00,215.50 L 104.50,215.00 L 104.50,214.00 L 104.50,213.00 L 104.00,212.50 L 103.50,212.00 L 104.00,211.50 L 104.50,211.00 L 104.50,210.00 L 104.50,209.00 L 104.50,208.00 L 104.00,207.50 L 103.50,207.00 L 103.00,206.50 L 102.00,206.50 L 101.00,206.50 L 100.00,206.50 L 99.00,206.50 L 98.00,206.50 L 97.00,206.50 L 96.00,206.50 L 95.00,206.50 L 94.00,206.50 L 93.00,206.50 L 92.00,206.50 L 91.00,206.50 L 90.00,206.50 L 89.00,206.50 L 88.00,206.50 L 87.00,206.50 L 86.00,206.50 L 85.00,206.50 L 84.00,206.50 L 83.00,206.50 L 82.50,206.00 L 82.50,205.00 L 83.00,204.50 L 83.50,204.00 L 84.00,203.50 L 84.50,203.00 L 85.00,202.50 L 85.50,202.00 L 86.00,201.50 L 86.50,201.00 L 87.00,200.50 L 87.50,200.00 L 88.00,199.50 L 88.50,199.00 L 89.00,198.50 L 89.50,198.00 L 90.00,197.50 L 90.50,197.00 L 91.00,196.50 L 91.50,196.00 L 92.00,195.50 L 92.50,195.00 L 92.50,194.00 L 93.00,193.50 L 94.00,193.50 L 94.50,193.00 L 94.50,192.00 L 95.00,191.50 L 96.00,191.50 L 96.50,191.00 L 96.50,190.00 L 97.00,189.50 L 97.50,189.00 L 98.00,188.50 L 98.50,188.00 L 99.00,187.50 L 99.50,187.00 L 100.00,186.50 L 100.50,186.00 L 101.00,185.50 L 101.50,185.00 L 102.00,184.50 L 102.50,184.00 L 103.00,183.50 L 103.50,183.00 L 104.00,182.50 L 104.50,182.00 L 105.00,181.50 L 105.50,181.00 L 106.00,180.50 L 106.50,180.00 L 107.00,179.50 L 107.50,179.00 L 108.00,178.50 L 108.50,178.00 L 109.00,177.50 L 109.50,177.00 L 110.00,176.50 L 110.50,176.00 L 111.00,175.50 L 111.50,175.00 L 112.00,174.50 L 112.50,174.00 L 112.50,173.00 L 113.00,172.50 L 114.00,172.50 L 114.50,172.00 L 114.50,171.00 L 115.00,170.50 L 115.50,170.00 L 116.00,169.50 L 116.50,169.00 L 117.00,168.50 L 117.50,168.00 L 118.00,167.50 L 118.50,167.00 L 119.00,166.50 L 119.50,166.00 L 120.00,165.50 L 120.50,165.00 L 121.00,164.50 L 121.50,164.00 L 122.00,163.50 L 122.50,163.00 L 123.00,162.50 L 123.50,162.00 L 124.00,161.50 L 124.50,161.00 L 125.00,160.50 L 125.50,160.00 L 126.00,159.50 L 126.50,159.00 L 127.00,158.50 L 127.50,158.00 L 128.00,157.50 L 128.50,157.00 L 129.00,156.50 L 129.50,156.00 L 130.00,155.50 L 130.50,155.00 L 131.00,154.50 L 131.50,154.00 L 132.00,153.50 L 132.50,153.00 L 133.00,152.50 L 133.50,152.00 L 134.00,151.50 L 134.50,151.00 L 135.00,150.50 L 135.50,150.00 L 135.50,149.00 L 136.00,148.50 L 137.00,148.50 L 137.50,148.00 L 137.50,147.00 L 138.00,146.50 L 139.00,146.50 L 139.50,146.00 L 139.50,145.00 L 140.00,144.50 L 141.00,144.50 L 141.50,144.00 L 141.50,143.00 L 142.00,142.50 L 142.50,142.00 L 143.00,141.50 L 144.00,141.50 L 144.50,141.00 L 144.50,140.00 L 145.00,139.50 L 146.00,139.50 L 146.50,139.00 L 146.50,138.00 L 147.00,137.50 L 147.50,137.00 L 148.00,136.50 L 148.50,136.00 L 149.00,135.50 L 149.50,135.00 L 150.00,134.50 L 150.50,134.00 L 151.00,133.50 L 151.50,133.00 L 152.00,132.50 L 152.50,132.00 L 153.00,131.50 L 153.50,131.00 L 154.00,130.50 L 154.50,130.00 L 155.00,129.50 L 155.50,129.00 L 156.00,128.50 L 156.50,128.00 L 157.00,127.50 L 157.50,127.00 L 158.00,126.50 L 158.50,126.00 L 159.00,125.50 L 159.50,125.00 L 160.00,124.50 L 160.50,124.00 L 161.00,123.50 L 161.50,123.00 L 162.00,122.50 L 162.50,122.00 L 163.00,121.50 L 163.50,121.00 L 164.00,120.50 L 164.50,120.00 L 165.00,119.50 L 165.50,119.00 L 165.50,118.00 L 166.00,117.50 L 167.00,117.50 L 167.50,117.00 L 167.50,116.00 L 168.00,115.50 L 168.50,115.00 L 169.00,114.50 L 170.00,114.50 L 170.50,114.00 L 170.50,113.00 L 171.00,112.50 L 172.00,112.50 L 173.00,112.50 L 173.50,113.00 L 174.00,113.50 L 175.00,113.50 L 175.50,114.00 L 176.00,114.50 L 176.50,115.00 L 177.00,115.50 L 177.50,116.00 L 178.00,116.50 L 178.50,117.00 L 179.00,117.50 L 179.50,118.00 L 180.00,118.50 L 180.50,119.00 L 181.00,119.50 L 181.50,120.00 L 182.00,120.50 L 182.50,121.00 L 183.00,121.50 L 184.00,121.50 L 184.50,122.00 L 185.00,122.50 L 185.50,123.00 L 186.00,123.50 L 186.50,124.00 L 187.00,124.50 L 187.50,125.00 L 188.00,125.50 L 188.50,126.00 L 189.00,126.50 L 189.50,127.00 L 190.00,127.50 L 190.50,128.00 L 191.00,128.50 L 191.50,129.00 L 192.00,129.50 L 193.00,129.50 L 193.50,130.00 L 193.50,131.00 L 194.00,131.50 L 195.00,131.50 L 195.50,132.00 L 196.00,132.50 L 196.50,133.00 L 197.00,133.50 L 197.50,134.00 L 198.00,134.50 L 198.50,135.00 L 199.00,135.50 L 200.00,135.50 L 200.50,136.00 L 200.50,137.00 L 201.00,137.50 L 202.00,137.50 L 202.50,138.00 L 203.00,138.50 L 203.50,139.00 L 204.00,139.50 L 204.50,140.00 L 205.00,140.50 L 205.50,141.00 L 206.00,141.50 L 206.50,142.00 L 207.00,142.50 L 207.50,143.00 L 208.00,143.50 L 208.50,144.00 L 209.00,144.50 L 210.00,144.50 L 210.50,145.00 L 210.50,146.00 L 211.00,146.50 L 212.00,146.50 L 212.50,147.00 L 213.00,147.50 L 213.50,148.00 L 214.00,148.50 L 214.50,149.00 L 215.00,149.50 L 215.50,150.00 L 216.00,150.50 L 216.50,151.00 L 217.00,151.50 L 217.50,152.00 L 218.00,152.50 L 218.50,153.00 L 219.00,153.50 L 220.00,153.50 L 220.50,154.00 L 221.00,154.50 L 221.50,155.00 L 222.00,155.50 L 222.50,156.00 L 223.00,156.50 L 223.50,157.00 L 224.00,157.50 L 224.50,158.00 L 225.00,158.50 L 225.50,159.00 L 226.00,159.50 L 226.50,160.00 L 227.00,160.50 L 228.00,160.50 L 228.50,161.00 L 229.00,161.50 L 229.50,162.00 L 230.00,162.50 L 230.50,163.00 L 231.00,163.50 L 231.50,164.00 L 232.00,164.50 L 232.50,165.00 L 233.00,165.50 L 233.50,166.00 L 234.00,166.50 L 234.50,167.00 L 235.00,167.50 L 236.00,167.50 L 236.50,168.00 L 236.50,169.00 L 237.00,169.50 L 238.00,169.50 L 238.50,170.00 L 239.00,170.50 L 239.50,171.00 L 240.00,171.50 L 240.50,172.00 L 241.00,172.50 L 241.50,173.00 L 242.00,173.50 L 242.50,174.00 L 243.00,174.50 L 243.50,175.00 L 244.00,175.50 L 244.50,176.00 L 245.00,176.50 L 246.00,176.50 L 246.50,177.00 L 247.00,177.50 L 247.50,178.00 L 248.00,178.50 L 248.50,179.00 L 249.00,179.50 L 249.50,180.00 L 250.00,180.50 L 250.50,181.00 L 251.00,181.50 L 251.50,182.00 L 252.00,182.50 L 252.50,183.00 L 253.00,183.50 L 254.00,183.50 L 254.50,184.00 L 255.00,184.50 L 255.50,185.00 L 256.00,185.50 L 256.50,186.00 L 257.00,186.50 L 257.50,187.00 L 258.00,187.50 L 258.50,188.00 L 259.00,188.50 L 260.00,188.50 L 260.50,189.00 L 260.50,190.00 L 261.00,190.50 L 262.00,190.50 L 262.50,191.00 L 263.00,191.50 L 263.50,192.00 L 264.00,192.50 L 264.50,193.00 L 265.00,193.50 L 265.50,194.00 L 266.00,194.50 L 266.50,195.00 L 267.00,195.50 L 267.50,196.00 L 268.00,196.50 L 268.50,197.00 L 269.00,197.50 L 270.00,197.50 L 270.50,198.00 L 271.00,198.50 L 271.50,199.00 L 272.00,199.50 L 272.50,200.00 L 273.00,200.50 L 273.50,201.00 L 273.00,201.50 L 272.00,201.50 L 271.00,201.50 L 270.00,201.50 L 269.00,201.50 L 268.00,201.50 L 267.00,201.50 L 266.00,201.50 L 265.00,201.50 L 264.00,201.50 L 263.00,201.50 L 262.00,201.50 L 261.00,201.50 L 260.00,201.50 L 259.00,201.50 L 258.00,201.50 L 257.00,201.50 L 256.00,201.50 L 255.00,201.50 L 254.00,201.50 L 253.00,201.50 L 252.00,201.50 L 251.00,201.50 L 250.00,201.50 L 249.50,201.00 L 249.00,200.50 L 248.00,200.50 L 247.50,201.00 L 247.00,201.50 L 246.50,202.00 L 246.50,203.00 L 246.50,204.00 L 246.50,205.00 L 246.50,206.00 L 246.50,207.00 L 246.50,208.00 L 246.50,209.00 L 246.50,210.00 L 246.50,211.00 L 246.50,212.00 L 246.50,213.00 L 246.50,214.00 L 246.50,215.00 L 246.50,216.00 L 246.50,217.00 L 247.00,217.50 L 247.50,218.00 L 247.00,218.50 L 246.50,219.00 L 246.50,220.00 L 246.50,221.00 L 247.00,221.50 L 247.50,222.00 L 247.00,222.50 L 246.50,223.00 L 247.00,223.50 L 247.50,224.00 L 247.50,225.00 L 247.50,226.00 L 247.50,227.00 L 247.50,228.00 L 247.50,229.00 L 247.50,230.00 L 247.50,231.00 L 247.50,232.00 L 247.50,233.00 L 247.50,234.00 L 247.50,235.00 L 247.50,236.00 L 247.50,237.00 L 247.50,238.00 L 247.50,239.00 L 247.50,240.00 L 247.50,241.00 L 247.50,242.00 L 247.50,243.00 L 247.50,244.00 L 247.50,245.00 L 247.50,246.00 L 247.50,247.00 L 247.00,247.50 L 246.50,248.00 L 246.00,248.50 L 245.50,249.00 L 245.50,250.00 L 245.00,250.50 L 244.50,251.00 L 244.50,252.00 L 244.00,252.50 L 243.50,253.00 L 243.00,253.50 L 242.50,254.00 L 242.50,255.00 L 242.00,255.50 L 241.50,256.00 L 241.50,257.00 L 241.00,257.50 L 240.50,258.00 L 240.50,259.00 L 240.00,259.50 L 239.50,260.00 L 239.50,261.00 L 239.50,262.00 L 240.00,262.50 L 240.50,263.00 L 240.50,264.00 L 240.50,265.00 L 241.00,265.50 L 241.50,266.00 L 242.00,266.50 L 242.50,267.00 L 242.50,268.00 L 242.50,269.00 L 243.00,269.50 L 243.50,270.00 L 244.00,270.50 L 244.50,271.00 L 244.50,272.00 L 244.50,273.00 L 245.00,273.50 L 245.50,274.00 L 245.50,275.00 L 246.00,275.50 L 246.50,276.00 L 246.50,277.00 L 247.00,277.50 L 247.50,278.00 L 247.50,279.00 L 248.00,279.50 L 248.50,280.00 L 248.50,281.00 L 249.00,281.50 L 249.50,282.00 L 249.50,283.00 L 249.50,284.00 L 250.00,284.50 L 250.50,285.00 L 250.50,286.00 L 251.00,286.50 L 251.50,287.00 L 251.50,288.00 L 252.00,288.50 L 252.50,289.00 L 252.50,290.00 L 253.00,290.50 L 253.50,291.00 L 253.50,292.00 L 254.00,292.50 L 254.50,293.00 L 255.00,293.50 L 255.50,294.00 L 255.50,295.00 L 255.50,296.00 L 256.00,296.50 L 256.50,297.00 L 257.00,297.50 L 257.50,298.00 L 257.50,299.00 L 257.50,300.00 L 258.00,300.50 L 258.50,301.00 L 259.00,301.50 L 259.50,302.00 L 259.50,303.00 L 260.00,303.50 L 260.50,304.00 L 260.50,305.00 L 260.50,306.00 L 261.00,306.50 L 261.50,307.00 L 262.00,307.50 L 262.50,308.00 L 262.50,309.00 L 262.50,310.00 L 263.00,310.50 L 263.50,311.00 L 264.00,311.50 L 264.50,312.00 L 264.50,313.00 L 264.50,314.00 L 265.00,314.50 L 265.50,315.00 L 266.00,315.50 L 266.50,316.00 L 267.00,316.50 L 267.50,317.00 L 267.50,318.00 L 268.00,318.50 L 268.50,319.00 L 268.50,320.00 L 269.00,320.50 L 269.50,321.00 L 270.00,321.50 L 270.50,322.00 L 270.00,322.50 L 269.50,323.00 L 269.00,323.50 Z" fill="#b8860b" stroke="none" /><path d="M 292.00,320.50 L 291.00,320.50 L 290.00,320.50 L 289.00,320.50 L 288.00,320.50 L 287.00,320.50 L 286.00,320.50 L 285.00,320.50 L 284.00,320.50 L 283.00,320.50 L 282.50,320.00 L 282.00,319.50 L 281.00,319.50 L 280.00,319.50 L 279.50,319.00 L 279.00,318.50 L 278.00,318.50 L 277.00,318.50 L 276.00,318.50 L 275.50,318.00 L 275.00,317.50 L 274.00,317.50 L 273.50,317.00 L 273.00,316.50 L 272.50,316.00 L 272.00,315.50 L 271.00,315.50 L 270.50,315.00 L 270.00,314.50 L 269.50,314.00 L 269.00,313.50 L 268.50,313.00 L 268.00,312.50 L 267.50,312.00 L 267.00,311.50 L 266.50,311.00 L 266.00,310.50 L 265.50,310.00 L 265.00,309.50 L 264.50,309.00 L 264.00,308.50 L 263.50,308.00 L 263.00,307.50 L 262.50,307.00 L 262.50,306.00 L 262.00,305.50 L 261.50,305.00 L 261.50,304.00 L 261.00,303.50 L 260.50,303.00 L 260.50,302.00 L 260.50,301.00 L 260.00,300.50 L 259.50,300.00 L 259.50,299.00 L 259.50,298.00 L 259.50,297.00 L 259.00,296.50 L 258.50,296.00 L 258.50,295.00 L 258.50,294.00 L 258.50,293.00 L 258.50,292.00 L 258.50,291.00 L 258.50,290.00 L 258.50,289.00 L 258.50,288.00 L 258.50,287.00 L 259.00,286.50 L 259.50,286.00 L 259.50,285.00 L 259.50,284.00 L 259.50,283.00 L 260.00,282.50 L 260.50,282.00 L 260.50,281.00 L 261.00,280.50 L 261.50,280.00 L 261.50,279.00 L 262.00,278.50 L 262.50,278.00 L 262.50,277.00 L 263.00,276.50 L 263.50,276.00 L 264.00,275.50 L 264.50,275.00 L 264.50,274.00 L 265.00,273.50 L 265.50,273.00 L 266.00,272.50 L 266.50,272.00 L 267.00,271.50 L 267.50,271.00 L 268.00,270.50 L 268.50,270.00 L 269.00,269.50 L 269.50,269.00 L 270.00,268.50 L 271.00,268.50 L 271.50,268.00 L 272.00,267.50 L 272.50,267.00 L 273.00,266.50 L 274.00,266.50 L 274.50,266.00 L 275.00,265.50 L 276.00,265.50 L 276.50,265.00 L 277.00,264.50 L 278.00,264.50 L 279.00,264.50 L 280.00,264.50 L 280.50,264.00 L 281.00,263.50 L 282.00,263.50 L 283.00,263.50 L 284.00,263.50 L 285.00,263.50 L 286.00,263.50 L 287.00,263.50 L 288.00,263.50 L 289.00,263.50 L 290.00,263.50 L 291.00,263.50 L 292.00,263.50 L 293.00,263.50 L 294.00,263.50 L 295.00,263.50 L 295.50,264.00 L 296.00,264.50 L 297.00,264.50 L 298.00,264.50 L 299.00,264.50 L 299.50,265.00 L 300.00,265.50 L 300.50,266.00 L 301.00,266.50 L 302.00,266.50 L 303.00,266.50 L 303.50,267.00 L 304.00,267.50 L 304.50,268.00 L 305.00,268.50 L 306.00,268.50 L 306.50,269.00 L 307.00,269.50 L 307.50,270.00 L 308.00,270.50 L 308.50,271.00 L 309.00,271.50 L 309.50,272.00 L 310.00,272.50 L 310.50,273.00 L 311.00,273.50 L 311.50,274.00 L 312.00,274.50 L 312.50,275.00 L 312.50,276.00 L 313.00,276.50 L 313.50,277.00 L 313.50,278.00 L 314.00,278.50 L 314.50,279.00 L 314.00,279.50 L 313.00,279.50 L 312.00,279.50 L 311.00,279.50 L 310.00,279.50 L 309.00,279.50 L 308.00,279.50 L 307.00,279.50 L 306.00,279.50 L 305.00,279.50 L 304.00,279.50 L 303.00,279.50 L 302.50,279.00 L 302.00,278.50 L 301.50,278.00 L 301.00,277.50 L 300.50,277.00 L 300.00,276.50 L 299.50,276.00 L 299.00,275.50 L 298.00,275.50 L 297.50,275.00 L 297.00,274.50 L 296.00,274.50 L 295.50,274.00 L 295.00,273.50 L 294.00,273.50 L 293.50,273.00 L 293.00,272.50 L 292.00,272.50 L 291.00,272.50 L 290.00,272.50 L 289.00,272.50 L 288.00,272.50 L 287.00,272.50 L 286.00,272.50 L 285.00,272.50 L 284.00,272.50 L 283.50,273.00 L 283.00,273.50 L 282.00,273.50 L 281.00,273.50 L 280.50,274.00 L 280.00,274.50 L 279.00,274.50 L 278.50,275.00 L 278.00,275.50 L 277.00,275.50 L 276.50,276.00 L 276.00,276.50 L 275.50,277.00 L 275.00,277.50 L 274.50,278.00 L 274.00,278.50 L 273.50,279.00 L 273.00,279.50 L 272.50,280.00 L 272.00,280.50 L 271.50,281.00 L 271.50,282.00 L 271.00,282.50 L 270.50,283.00 L 270.50,284.00 L 270.00,284.50 L 269.50,285.00 L 269.50,286.00 L 269.50,287.00 L 269.50,288.00 L 269.00,288.50 L 268.50,289.00 L 268.50,290.00 L 268.50,291.00 L 268.50,292.00 L 268.50,293.00 L 268.50,294.00 L 269.00,294.50 L 269.50,295.00 L 269.50,296.00 L 269.50,297.00 L 269.50,298.00 L 270.00,298.50 L 270.50,299.00 L 270.50,300.00 L 271.00,300.50 L 271.50,301.00 L 271.50,302.00 L 272.00,302.50 L 272.50,303.00 L 273.00,303.50 L 273.50,304.00 L 273.50,305.00 L 274.00,305.50 L 275.00,305.50 L 275.50,306.00 L 276.00,306.50 L 276.50,307.00 L 277.00,307.50 L 278.00,307.50 L 278.50,308.00 L 279.00,308.50 L 279.50,309.00 L 280.00,309.50 L 281.00,309.50 L 281.50,310.00 L 282.00,310.50 L 283.00,310.50 L 284.00,310.50 L 285.00,310.50 L 286.00,310.50 L 287.00,310.50 L 288.00,310.50 L 289.00,310.50 L 290.00,310.50 L 291.00,310.50 L 292.00,310.50 L 293.00,310.50 L 294.00,310.50 L 294.50,310.00 L 295.00,309.50 L 296.00,309.50 L 296.50,309.00 L 297.00,308.50 L 298.00,308.50 L 298.50,308.00 L 299.00,307.50 L 299.50,307.00 L 300.00,306.50 L 300.50,306.00 L 301.00,305.50 L 301.50,305.00 L 302.00,304.50 L 302.50,304.00 L 303.00,303.50 L 304.00,303.50 L 305.00,303.50 L 306.00,303.50 L 307.00,303.50 L 308.00,303.50 L 309.00,303.50 L 310.00,303.50 L 311.00,303.50 L 312.00,303.50 L 313.00,303.50 L 313.50,304.00 L 314.00,304.50 L 314.50,305.00 L 314.00,305.50 L 313.50,306.00 L 313.00,306.50 L 312.50,307.00 L 312.50,308.00 L 312.00,308.50 L 311.50,309.00 L 311.50,310.00 L 311.00,310.50 L 310.50,311.00 L 310.00,311.50 L 309.50,312.00 L 309.00,312.50 L 308.50,313.00 L 308.00,313.50 L 307.00,313.50 L 306.50,314.00 L 306.00,314.50 L 305.50,315.00 L 305.00,315.50 L 304.00,315.50 L 303.50,316.00 L 303.00,316.50 L 302.50,317.00 L 302.00,317.50 L 301.00,317.50 L 300.50,318.00 L 300.00,318.50 L 299.00,318.50 L 298.00,318.50 L 297.50,319.00 L 297.00,319.50 L 296.00,319.50 L 295.00,319.50 L 294.00,319.50 L 293.00,319.50 L 292.50,320.00 L 292.00,320.50 Z" fill="#b8860b" stroke="none" /><path d="M 332.00,319.50 L 331.00,319.50 L 330.00,319.50 L 329.00,319.50 L 328.00,319.50 L 327.00,319.50 L 326.00,319.50 L 325.00,319.50 L 324.00,319.50 L 323.00,319.50 L 322.50,319.00 L 322.50,318.00 L 322.50,317.00 L 322.50,316.00 L 322.50,315.00 L 322.50,314.00 L 322.50,313.00 L 322.50,312.00 L 322.50,311.00 L 322.50,310.00 L 322.50,309.00 L 322.50,308.00 L 322.50,307.00 L 322.50,306.00 L 322.50,305.00 L 322.50,304.00 L 322.50,303.00 L 322.50,302.00 L 322.50,301.00 L 322.50,300.00 L 322.50,299.00 L 322.50,298.00 L 322.50,297.00 L 322.50,296.00 L 322.50,295.00 L 322.50,294.00 L 322.50,293.00 L 322.50,292.00 L 322.50,291.00 L 322.50,290.00 L 322.50,289.00 L 322.50,288.00 L 322.50,287.00 L 322.50,286.00 L 322.50,285.00 L 322.50,284.00 L 322.50,283.00 L 322.50,282.00 L 322.50,281.00 L 322.50,280.00 L 322.50,279.00 L 322.50,278.00 L 322.50,277.00 L 322.50,276.00 L 322.50,275.00 L 322.50,274.00 L 322.00,273.50 L 321.00,273.50 L 320.00,273.50 L 319.00,273.50 L 318.00,273.50 L 317.00,273.50 L 316.00,273.50 L 315.00,273.50 L 314.00,273.50 L 313.00,273.50 L 312.50,273.00 L 312.50,272.00 L 312.50,271.00 L 312.50,270.00 L 312.50,269.00 L 312.50,268.00 L 312.50,267.00 L 312.50,266.00 L 312.50,265.00 L 313.00,264.50 L 314.00,264.50 L 315.00,264.50 L 316.00,264.50 L 317.00,264.50 L 318.00,264.50 L 319.00,264.50 L 320.00,264.50 L 321.00,264.50 L 322.00,264.50 L 323.00,264.50 L 324.00,264.50 L 325.00,264.50 L 326.00,264.50 L 327.00,264.50 L 328.00,264.50 L 329.00,264.50 L 330.00,264.50 L 331.00,264.50 L 332.00,264.50 L 333.00,264.50 L 334.00,264.50 L 335.00,264.50 L 336.00,264.50 L 337.00,264.50 L 338.00,264.50 L 339.00,264.50 L 340.00,264.50 L 341.00,264.50 L 342.00,264.50 L 343.00,264.50 L 343.50,265.00 L 343.50,266.00 L 343.50,267.00 L 343.50,268.00 L 343.50,269.00 L 343.50,270.00 L 343.50,271.00 L 343.50,272.00 L 343.50,273.00 L 343.00,273.50 L 342.00,273.50 L 341.00,273.50 L 340.00,273.50 L 339.00,273.50 L 338.00,273.50 L 337.00,273.50 L 336.00,273.50 L 335.00,273.50 L 334.00,273.50 L 333.00,273.50 L 332.50,274.00 L 332.50,275.00 L 332.50,276.00 L 332.50,277.00 L 332.50,278.00 L 332.50,279.00 L 332.50,280.00 L 332.50,281.00 L 332.50,282.00 L 332.50,283.00 L 332.50,284.00 L 332.50,285.00 L 332.50,286.00 L 332.50,287.00 L 332.50,288.00 L 332.50,289.00 L 332.50,290.00 L 332.50,291.00 L 332.50,292.00 L 332.50,293.00 L 332.50,294.00 L 332.50,295.00 L 332.50,296.00 L 332.50,297.00 L 332.50,298.00 L 332.50,299.00 L 332.50,300.00 L 332.50,301.00 L 332.50,302.00 L 332.50,303.00 L 332.50,304.00 L 332.50,305.00 L 332.50,306.00 L 332.50,307.00 L 332.50,308.00 L 332.50,309.00 L 332.50,310.00 L 332.50,311.00 L 332.50,312.00 L 332.50,313.00 L 332.50,314.00 L 332.50,315.00 L 332.50,316.00 L 332.50,317.00 L 332.50,318.00 L 332.50,319.00 L 332.00,319.50 Z" fill="#b8860b" stroke="none" /><path d="M 372.00,319.50 L 371.00,319.50 L 370.00,319.50 L 369.00,319.50 L 368.00,319.50 L 367.00,319.50 L 366.00,319.50 L 365.00,319.50 L 364.00,319.50 L 363.00,319.50 L 362.00,319.50 L 361.00,319.50 L 360.00,319.50 L 359.00,319.50 L 358.00,319.50 L 357.00,319.50 L 356.00,319.50 L 355.00,319.50 L 354.00,319.50 L 353.00,319.50 L 352.00,319.50 L 351.00,319.50 L 350.00,319.50 L 349.00,319.50 L 348.00,319.50 L 347.00,319.50 L 346.00,319.50 L 345.00,319.50 L 344.50,319.00 L 344.50,318.00 L 344.50,317.00 L 344.50,316.00 L 344.50,315.00 L 344.50,314.00 L 344.50,313.00 L 344.50,312.00 L 344.50,311.00 L 344.50,310.00 L 344.50,309.00 L 344.50,308.00 L 344.50,307.00 L 344.50,306.00 L 344.50,305.00 L 344.50,304.00 L 344.50,303.00 L 344.50,302.00 L 344.50,301.00 L 344.50,300.00 L 344.50,299.00 L 344.50,298.00 L 344.50,297.00 L 344.50,296.00 L 344.50,295.00 L 344.50,294.00 L 344.50,293.00 L 344.50,292.00 L 344.50,291.00 L 344.50,290.00 L 344.50,289.00 L 344.50,288.00 L 344.50,287.00 L 344.50,286.00 L 344.50,285.00 L 344.50,284.00 L 344.50,283.00 L 344.50,282.00 L 344.50,281.00 L 344.50,280.00 L 344.50,279.00 L 344.50,278.00 L 344.50,277.00 L 344.50,276.00 L 344.50,275.00 L 344.50,274.00 L 344.50,273.00 L 344.50,272.00 L 344.50,271.00 L 344.50,270.00 L 344.50,269.00 L 344.50,268.00 L 344.50,267.00 L 344.50,266.00 L 344.50,265.00 L 345.00,264.50 L 346.00,264.50 L 347.00,264.50 L 348.00,264.50 L 349.00,264.50 L 350.00,264.50 L 351.00,264.50 L 352.00,264.50 L 353.00,264.50 L 354.00,264.50 L 355.00,264.50 L 356.00,264.50 L 357.00,264.50 L 358.00,264.50 L 359.00,264.50 L 360.00,264.50 L 361.00,264.50 L 362.00,264.50 L 363.00,264.50 L 364.00,264.50 L 365.00,264.50 L 366.00,264.50 L 367.00,264.50 L 368.00,264.50 L 369.00,264.50 L 370.00,264.50 L 371.00,264.50 L 372.00,264.50 L 372.50,265.00 L 372.50,266.00 L 372.50,267.00 L 372.50,268.00 L 372.50,269.00 L 372.50,270.00 L 372.50,271.00 L 372.50,272.00 L 372.50,273.00 L 372.00,273.50 L 371.00,273.50 L 370.00,273.50 L 369.00,273.50 L 368.00,273.50 L 367.00,273.50 L 366.00,273.50 L 365.00,273.50 L 364.00,273.50 L 363.00,273.50 L 362.00,273.50 L 361.00,273.50 L 360.00,273.50 L 359.00,273.50 L 358.00,273.50 L 357.00,273.50 L 356.00,273.50 L 355.00,273.50 L 354.50,274.00 L 354.50,275.00 L 354.50,276.00 L 354.50,277.00 L 354.50,278.00 L 354.50,279.00 L 354.50,280.00 L 354.50,281.00 L 354.50,282.00 L 354.50,283.00 L 354.50,284.00 L 354.50,285.00 L 354.50,286.00 L 355.00,286.50 L 356.00,286.50 L 357.00,286.50 L 358.00,286.50 L 359.00,286.50 L 360.00,286.50 L 361.00,286.50 L 362.00,286.50 L 363.00,286.50 L 364.00,286.50 L 365.00,286.50 L 366.00,286.50 L 367.00,286.50 L 368.00,286.50 L 369.00,286.50 L 370.00,286.50 L 371.00,286.50 L 372.00,286.50 L 372.50,287.00 L 372.50,288.00 L 372.50,289.00 L 372.50,290.00 L 372.50,291.00 L 372.50,292.00 L 372.50,293.00 L 372.50,294.00 L 372.50,295.00 L 372.50,296.00 L 372.00,296.50 L 371.00,296.50 L 370.00,296.50 L 369.00,296.50 L 368.00,296.50 L 367.00,296.50 L 366.00,296.50 L 365.00,296.50 L 364.00,296.50 L 363.00,296.50 L 362.00,296.50 L 361.00,296.50 L 360.00,296.50 L 359.00,296.50 L 358.00,296.50 L 357.00,296.50 L 356.00,296.50 L 355.00,296.50 L 354.50,297.00 L 354.50,298.00 L 354.50,299.00 L 354.50,300.00 L 354.50,301.00 L 354.50,302.00 L 354.50,303.00 L 354.50,304.00 L 354.50,305.00 L 354.50,306.00 L 354.50,307.00 L 354.50,308.00 L 354.50,309.00 L 355.00,309.50 L 355.50,310.00 L 356.00,310.50 L 356.50,310.00 L 357.00,309.50 L 358.00,309.50 L 359.00,309.50 L 360.00,309.50 L 361.00,309.50 L 362.00,309.50 L 363.00,309.50 L 364.00,309.50 L 365.00,309.50 L 366.00,309.50 L 367.00,309.50 L 368.00,309.50 L 369.00,309.50 L 370.00,309.50 L 371.00,309.50 L 371.50,310.00 L 372.00,310.50 L 372.50,311.00 L 372.50,312.00 L 372.50,313.00 L 372.50,314.00 L 372.50,315.00 L 372.50,316.00 L 372.50,317.00 L 372.50,318.00 L 372.50,319.00 L 372.00,319.50 Z" fill="#b8860b" stroke="none" /><path d="M 405.00,319.50 L 404.00,319.50 L 403.00,319.50 L 402.00,319.50 L 401.00,319.50 L 400.00,319.50 L 399.00,319.50 L 398.00,319.50 L 397.00,319.50 L 396.00,319.50 L 395.00,319.50 L 394.00,319.50 L 393.00,319.50 L 392.00,319.50 L 391.00,319.50 L 390.00,319.50 L 389.00,319.50 L 388.00,319.50 L 387.00,319.50 L 386.00,319.50 L 385.00,319.50 L 384.00,319.50 L 383.00,319.50 L 382.00,319.50 L 381.00,319.50 L 380.00,319.50 L 379.00,319.50 L 378.50,319.00 L 378.00,318.50 L 377.50,318.00 L 377.50,317.00 L 377.50,316.00 L 377.50,315.00 L 377.50,314.00 L 377.50,313.00 L 377.50,312.00 L 377.50,311.00 L 377.50,310.00 L 377.50,309.00 L 377.50,308.00 L 377.50,307.00 L 377.50,306.00 L 377.50,305.00 L 377.50,304.00 L 377.50,303.00 L 377.50,302.00 L 377.50,301.00 L 377.50,300.00 L 377.50,299.00 L 377.50,298.00 L 377.50,297.00 L 377.50,296.00 L 377.50,295.00 L 377.50,294.00 L 377.50,293.00 L 377.50,292.00 L 377.50,291.00 L 377.50,290.00 L 377.50,289.00 L 377.50,288.00 L 377.50,287.00 L 377.50,286.00 L 377.50,285.00 L 377.50,284.00 L 377.50,283.00 L 377.50,282.00 L 377.50,281.00 L 377.50,280.00 L 377.50,279.00 L 377.50,278.00 L 377.50,277.00 L 377.50,276.00 L 377.50,275.00 L 377.50,274.00 L 377.50,273.00 L 377.50,272.00 L 377.50,271.00 L 377.50,270.00 L 377.50,269.00 L 377.50,268.00 L 377.50,267.00 L 377.50,266.00 L 377.50,265.00 L 378.00,264.50 L 379.00,264.50 L 380.00,264.50 L 381.00,264.50 L 382.00,264.50 L 383.00,264.50 L 384.00,264.50 L 385.00,264.50 L 386.00,264.50 L 387.00,264.50 L 388.00,264.50 L 389.00,264.50 L 390.00,264.50 L 391.00,264.50 L 392.00,264.50 L 393.00,264.50 L 394.00,264.50 L 395.00,264.50 L 396.00,264.50 L 397.00,264.50 L 398.00,264.50 L 399.00,264.50 L 400.00,264.50 L 401.00,264.50 L 402.00,264.50 L 403.00,264.50 L 404.00,264.50 L 405.00,264.50 L 406.00,264.50 L 406.50,265.00 L 406.50,266.00 L 406.50,267.00 L 406.50,268.00 L 406.50,269.00 L 406.50,270.00 L 406.50,271.00 L 406.50,272.00 L 406.50,273.00 L 406.00,273.50 L 405.00,273.50 L 404.00,273.50 L 403.00,273.50 L 402.00,273.50 L 401.00,273.50 L 400.00,273.50 L 399.00,273.50 L 398.00,273.50 L 397.00,273.50 L 396.00,273.50 L 395.00,273.50 L 394.00,273.50 L 393.00,273.50 L 392.00,273.50 L 391.00,273.50 L 390.00,273.50 L 389.00,273.50 L 388.00,273.50 L 387.50,274.00 L 387.50,275.00 L 387.50,276.00 L 387.50,277.00 L 387.50,278.00 L 387.50,279.00 L 387.50,280.00 L 387.50,281.00 L 387.50,282.00 L 387.50,283.00 L 387.50,284.00 L 387.50,285.00 L 387.50,286.00 L 388.00,286.50 L 389.00,286.50 L 390.00,286.50 L 391.00,286.50 L 392.00,286.50 L 393.00,286.50 L 394.00,286.50 L 395.00,286.50 L 396.00,286.50 L 397.00,286.50 L 398.00,286.50 L 399.00,286.50 L 400.00,286.50 L 401.00,286.50 L 402.00,286.50 L 403.00,286.50 L 404.00,286.50 L 405.00,286.50 L 405.50,287.00 L 406.00,287.50 L 406.50,288.00 L 406.50,289.00 L 406.50,290.00 L 406.50,291.00 L 406.50,292.00 L 406.50,293.00 L 406.50,294.00 L 406.50,295.00 L 406.00,295.50 L 405.50,296.00 L 405.00,296.50 L 404.00,296.50 L 403.00,296.50 L 402.00,296.50 L 401.00,296.50 L 400.00,296.50 L 399.00,296.50 L 398.00,296.50 L 397.00,296.50 L 396.00,296.50 L 395.00,296.50 L 394.00,296.50 L 393.00,296.50 L 392.00,296.50 L 391.00,296.50 L 390.00,296.50 L 389.00,296.50 L 388.00,296.50 L 387.50,297.00 L 387.50,298.00 L 387.50,299.00 L 387.50,300.00 L 387.50,301.00 L 387.50,302.00 L 387.50,303.00 L 387.50,304.00 L 387.50,305.00 L 387.50,306.00 L 387.50,307.00 L 387.50,308.00 L 387.50,309.00 L 388.00,309.50 L 389.00,309.50 L 390.00,309.50 L 391.00,309.50 L 392.00,309.50 L 393.00,309.50 L 394.00,309.50 L 395.00,309.50 L 396.00,309.50 L 397.00,309.50 L 398.00,309.50 L 399.00,309.50 L 400.00,309.50 L 401.00,309.50 L 402.00,309.50 L 403.00,309.50 L 404.00,309.50 L 405.00,309.50 L 405.50,310.00 L 406.00,310.50 L 406.50,311.00 L 406.50,312.00 L 406.50,313.00 L 406.50,314.00 L 406.50,315.00 L 406.50,316.00 L 406.50,317.00 L 406.50,318.00 L 406.00,318.50 L 405.50,319.00 L 405.00,319.50 Z" fill="#b8860b" stroke="none" /><path d="M 196.00,377.50 L 195.00,377.50 L 194.00,377.50 L 193.00,377.50 L 192.00,377.50 L 191.00,377.50 L 190.00,377.50 L 189.00,377.50 L 188.00,377.50 L 187.00,377.50 L 186.00,377.50 L 185.00,377.50 L 184.00,377.50 L 183.00,377.50 L 182.00,377.50 L 181.00,377.50 L 180.00,377.50 L 179.00,377.50 L 178.00,377.50 L 177.00,377.50 L 176.00,377.50 L 175.00,377.50 L 174.00,377.50 L 173.00,377.50 L 172.00,377.50 L 171.00,377.50 L 170.00,377.50 L 169.00,377.50 L 168.00,377.50 L 167.00,377.50 L 166.00,377.50 L 165.00,377.50 L 164.00,377.50 L 163.00,377.50 L 162.00,377.50 L 161.00,377.50 L 160.00,377.50 L 159.00,377.50 L 158.00,377.50 L 157.00,377.50 L 156.00,377.50 L 155.00,377.50 L 154.00,377.50 L 153.00,377.50 L 152.00,377.50 L 151.00,377.50 L 150.00,377.50 L 149.00,377.50 L 148.00,377.50 L 147.00,377.50 L 146.00,377.50 L 145.00,377.50 L 144.00,377.50 L 143.00,377.50 L 142.00,377.50 L 141.00,377.50 L 140.00,377.50 L 139.00,377.50 L 138.00,377.50 L 137.00,377.50 L 136.00,377.50 L 135.00,377.50 L 134.00,377.50 L 133.00,377.50 L 132.00,377.50 L 131.00,377.50 L 130.00,377.50 L 129.00,377.50 L 128.00,377.50 L 127.00,377.50 L 126.00,377.50 L 125.00,377.50 L 124.00,377.50 L 123.00,377.50 L 122.00,377.50 L 121.00,377.50 L 120.50,377.00 L 120.50,376.00 L 120.50,375.00 L 120.50,374.00 L 120.50,373.00 L 120.50,372.00 L 120.50,371.00 L 120.50,370.00 L 120.50,369.00 L 120.50,368.00 L 120.50,367.00 L 120.50,366.00 L 120.50,365.00 L 120.50,364.00 L 120.50,363.00 L 120.50,362.00 L 120.50,361.00 L 120.50,360.00 L 120.50,359.00 L 120.50,358.00 L 120.50,357.00 L 120.50,356.00 L 120.50,355.00 L 120.50,354.00 L 120.50,353.00 L 120.50,352.00 L 120.50,351.00 L 120.50,350.00 L 120.50,349.00 L 120.50,348.00 L 120.50,347.00 L 120.50,346.00 L 120.50,345.00 L 120.50,344.00 L 120.50,343.00 L 120.50,342.00 L 120.50,341.00 L 120.50,340.00 L 120.50,339.00 L 120.50,338.00 L 120.50,337.00 L 120.50,336.00 L 120.50,335.00 L 120.50,334.00 L 120.50,333.00 L 120.50,332.00 L 120.50,331.00 L 120.50,330.00 L 120.50,329.00 L 120.50,328.00 L 120.50,327.00 L 120.50,326.00 L 120.50,325.00 L 120.50,324.00 L 120.50,323.00 L 120.50,322.00 L 120.50,321.00 L 120.50,320.00 L 120.50,319.00 L 120.50,318.00 L 120.50,317.00 L 120.50,316.00 L 120.50,315.00 L 120.50,314.00 L 120.50,313.00 L 120.50,312.00 L 120.50,311.00 L 120.50,310.00 L 121.00,309.50 L 121.50,309.00 L 122.00,308.50 L 122.50,309.00 L 123.00,309.50 L 123.50,310.00 L 124.00,310.50 L 125.00,310.50 L 125.50,311.00 L 126.00,311.50 L 127.00,311.50 L 127.50,312.00 L 128.00,312.50 L 129.00,312.50 L 129.50,313.00 L 130.00,313.50 L 130.50,314.00 L 131.00,314.50 L 132.00,314.50 L 132.50,315.00 L 132.50,316.00 L 132.50,317.00 L 132.50,318.00 L 132.50,319.00 L 132.50,320.00 L 132.50,321.00 L 132.50,322.00 L 132.50,323.00 L 132.50,324.00 L 132.50,325.00 L 132.50,326.00 L 132.50,327.00 L 132.50,328.00 L 132.50,329.00 L 132.50,330.00 L 132.50,331.00 L 132.50,332.00 L 132.50,333.00 L 132.50,334.00 L 132.50,335.00 L 132.50,336.00 L 132.50,337.00 L 132.50,338.00 L 132.50,339.00 L 132.50,340.00 L 132.50,341.00 L 132.50,342.00 L 132.50,343.00 L 132.50,344.00 L 132.50,345.00 L 132.50,346.00 L 132.50,347.00 L 132.50,348.00 L 132.50,349.00 L 132.50,350.00 L 132.50,351.00 L 132.50,352.00 L 132.50,353.00 L 132.50,354.00 L 132.50,355.00 L 132.50,356.00 L 132.50,357.00 L 132.50,358.00 L 132.50,359.00 L 132.50,360.00 L 132.50,361.00 L 132.50,362.00 L 132.50,363.00 L 132.50,364.00 L 132.50,365.00 L 132.50,366.00 L 132.50,367.00 L 133.00,367.50 L 134.00,367.50 L 135.00,367.50 L 136.00,367.50 L 137.00,367.50 L 138.00,367.50 L 139.00,367.50 L 140.00,367.50 L 141.00,367.50 L 142.00,367.50 L 143.00,367.50 L 144.00,367.50 L 145.00,367.50 L 146.00,367.50 L 147.00,367.50 L 148.00,367.50 L 149.00,367.50 L 150.00,367.50 L 151.00,367.50 L 152.00,367.50 L 153.00,367.50 L 154.00,367.50 L 155.00,367.50 L 156.00,367.50 L 157.00,367.50 L 158.00,367.50 L 159.00,367.50 L 160.00,367.50 L 161.00,367.50 L 162.00,367.50 L 163.00,367.50 L 164.00,367.50 L 165.00,367.50 L 166.00,367.50 L 167.00,367.50 L 168.00,367.50 L 169.00,367.50 L 170.00,367.50 L 171.00,367.50 L 172.00,367.50 L 173.00,367.50 L 174.00,367.50 L 175.00,367.50 L 176.00,367.50 L 177.00,367.50 L 178.00,367.50 L 179.00,367.50 L 180.00,367.50 L 181.00,367.50 L 182.00,367.50 L 183.00,367.50 L 184.00,367.50 L 185.00,367.50 L 186.00,367.50 L 186.50,367.00 L 186.50,366.00 L 186.50,365.00 L 186.50,364.00 L 186.50,363.00 L 186.50,362.00 L 186.50,361.00 L 186.50,360.00 L 186.50,359.00 L 186.50,358.00 L 186.50,357.00 L 186.50,356.00 L 186.50,355.00 L 186.50,354.00 L 186.50,353.00 L 186.50,352.00 L 186.50,351.00 L 186.50,350.00 L 186.50,349.00 L 186.50,348.00 L 186.50,347.00 L 186.50,346.00 L 186.50,345.00 L 186.50,344.00 L 186.50,343.00 L 186.50,342.00 L 186.50,341.00 L 186.50,340.00 L 186.50,339.00 L 186.50,338.00 L 186.50,337.00 L 186.50,336.00 L 186.50,335.00 L 186.50,334.00 L 186.50,333.00 L 186.50,332.00 L 186.50,331.00 L 186.50,330.00 L 186.50,329.00 L 186.50,328.00 L 186.50,327.00 L 186.50,326.00 L 186.50,325.00 L 186.50,324.00 L 186.50,323.00 L 187.00,322.50 L 188.00,322.50 L 189.00,322.50 L 189.50,323.00 L 190.00,323.50 L 191.00,323.50 L 191.50,324.00 L 192.00,324.50 L 192.50,325.00 L 193.00,325.50 L 194.00,325.50 L 194.50,326.00 L 195.00,326.50 L 196.00,326.50 L 196.50,327.00 L 197.00,327.50 L 197.50,328.00 L 197.50,329.00 L 197.50,330.00 L 197.50,331.00 L 197.50,332.00 L 197.50,333.00 L 197.50,334.00 L 197.50,335.00 L 197.50,336.00 L 197.50,337.00 L 197.50,338.00 L 197.50,339.00 L 197.50,340.00 L 197.50,341.00 L 197.50,342.00 L 197.50,343.00 L 197.50,344.00 L 197.50,345.00 L 197.50,346.00 L 197.50,347.00 L 197.50,348.00 L 197.50,349.00 L 197.50,350.00 L 197.50,351.00 L 197.50,352.00 L 197.50,353.00 L 197.50,354.00 L 197.50,355.00 L 197.50,356.00 L 197.50,357.00 L 197.50,358.00 L 197.50,359.00 L 197.50,360.00 L 197.50,361.00 L 197.50,362.00 L 197.50,363.00 L 197.50,364.00 L 197.50,365.00 L 197.50,366.00 L 197.50,367.00 L 197.50,368.00 L 197.50,369.00 L 197.50,370.00 L 197.50,371.00 L 197.50,372.00 L 197.50,373.00 L 197.50,374.00 L 197.50,375.00 L 197.50,376.00 L 197.00,376.50 L 196.50,377.00 L 196.00,377.50 Z" fill="#b8860b" stroke="none" /><path d="M 237.00,364.50 L 236.00,364.50 L 235.00,364.50 L 234.00,364.50 L 233.00,364.50 L 232.00,364.50 L 231.50,364.00 L 231.50,363.00 L 231.50,362.00 L 231.50,361.00 L 231.00,360.50 L 230.50,360.00 L 230.50,359.00 L 230.50,358.00 L 231.00,357.50 L 231.50,357.00 L 231.50,356.00 L 231.50,355.00 L 231.50,354.00 L 231.00,353.50 L 230.50,353.00 L 230.00,352.50 L 229.00,352.50 L 228.00,352.50 L 227.00,352.50 L 226.00,352.50 L 225.00,352.50 L 224.00,352.50 L 223.00,352.50 L 222.00,352.50 L 221.00,352.50 L 220.50,353.00 L 220.50,354.00 L 220.50,355.00 L 220.50,356.00 L 220.50,357.00 L 220.50,358.00 L 220.50,359.00 L 220.50,360.00 L 220.50,361.00 L 220.50,362.00 L 220.50,363.00 L 220.50,364.00 L 220.00,364.50 L 219.00,364.50 L 218.00,364.50 L 217.00,364.50 L 216.00,364.50 L 215.50,364.00 L 215.00,363.50 L 214.50,363.00 L 214.50,362.00 L 214.50,361.00 L 214.50,360.00 L 214.50,359.00 L 214.50,358.00 L 214.50,357.00 L 214.50,356.00 L 214.50,355.00 L 214.50,354.00 L 214.50,353.00 L 214.50,352.00 L 214.50,351.00 L 214.50,350.00 L 214.50,349.00 L 214.50,348.00 L 214.50,347.00 L 214.50,346.00 L 214.50,345.00 L 214.50,344.00 L 214.50,343.00 L 214.50,342.00 L 214.50,341.00 L 214.50,340.00 L 214.50,339.00 L 214.50,338.00 L 214.50,337.00 L 214.50,336.00 L 214.50,335.00 L 215.00,334.50 L 215.50,334.00 L 216.00,333.50 L 217.00,333.50 L 218.00,333.50 L 219.00,333.50 L 219.50,334.00 L 220.00,334.50 L 220.50,335.00 L 220.50,336.00 L 220.50,337.00 L 220.50,338.00 L 220.50,339.00 L 220.50,340.00 L 220.50,341.00 L 220.50,342.00 L 220.50,343.00 L 220.50,344.00 L 220.50,345.00 L 220.50,346.00 L 221.00,346.50 L 222.00,346.50 L 223.00,346.50 L 224.00,346.50 L 225.00,346.50 L 226.00,346.50 L 227.00,346.50 L 228.00,346.50 L 229.00,346.50 L 230.00,346.50 L 230.50,346.00 L 230.50,345.00 L 231.00,344.50 L 231.50,344.00 L 231.50,343.00 L 231.50,342.00 L 231.50,341.00 L 231.50,340.00 L 231.50,339.00 L 231.50,338.00 L 231.50,337.00 L 231.50,336.00 L 231.50,335.00 L 231.50,334.00 L 232.00,333.50 L 233.00,333.50 L 234.00,333.50 L 235.00,333.50 L 236.00,333.50 L 236.50,334.00 L 237.00,334.50 L 237.50,335.00 L 237.50,336.00 L 237.50,337.00 L 237.50,338.00 L 237.50,339.00 L 237.50,340.00 L 237.50,341.00 L 237.50,342.00 L 237.50,343.00 L 237.50,344.00 L 237.50,345.00 L 237.50,346.00 L 237.50,347.00 L 237.50,348.00 L 237.50,349.00 L 237.50,350.00 L 237.50,351.00 L 237.50,352.00 L 237.50,353.00 L 237.50,354.00 L 237.50,355.00 L 237.50,356.00 L 237.50,357.00 L 237.50,358.00 L 237.50,359.00 L 237.50,360.00 L 237.50,361.00 L 237.50,362.00 L 237.50,363.00 L 237.50,364.00 L 237.00,364.50 Z" fill="#b8860b" stroke="none" /><path d="M 273.00,365.50 L 272.00,365.50 L 271.00,365.50 L 270.00,365.50 L 269.00,365.50 L 268.00,365.50 L 267.00,365.50 L 266.00,365.50 L 265.50,365.00 L 265.00,364.50 L 264.00,364.50 L 263.50,364.00 L 263.00,363.50 L 262.00,363.50 L 261.00,363.50 L 260.50,363.00 L 260.00,362.50 L 259.50,362.00 L 259.00,361.50 L 258.50,361.00 L 258.00,360.50 L 257.50,360.00 L 257.00,359.50 L 256.50,359.00 L 256.00,358.50 L 255.50,358.00 L 255.50,357.00 L 255.00,356.50 L 254.50,356.00 L 254.50,355.00 L 254.50,354.00 L 254.00,353.50 L 253.50,353.00 L 253.50,352.00 L 253.50,351.00 L 253.50,350.00 L 253.50,349.00 L 253.50,348.00 L 253.50,347.00 L 253.50,346.00 L 253.50,345.00 L 254.00,344.50 L 254.50,344.00 L 254.50,343.00 L 255.00,342.50 L 255.50,342.00 L 255.50,341.00 L 256.00,340.50 L 256.50,340.00 L 257.00,339.50 L 257.50,339.00 L 258.00,338.50 L 258.50,338.00 L 259.00,337.50 L 259.50,337.00 L 260.00,336.50 L 260.50,336.00 L 261.00,335.50 L 262.00,335.50 L 262.50,335.00 L 263.00,334.50 L 264.00,334.50 L 264.50,334.00 L 265.00,333.50 L 266.00,333.50 L 267.00,333.50 L 268.00,333.50 L 269.00,333.50 L 270.00,333.50 L 271.00,333.50 L 272.00,333.50 L 273.00,333.50 L 274.00,333.50 L 274.50,334.00 L 275.00,334.50 L 276.00,334.50 L 277.00,334.50 L 277.50,335.00 L 278.00,335.50 L 279.00,335.50 L 279.50,336.00 L 280.00,336.50 L 280.50,337.00 L 281.00,337.50 L 281.50,338.00 L 282.00,338.50 L 282.50,339.00 L 283.00,339.50 L 283.50,340.00 L 283.50,341.00 L 284.00,341.50 L 284.50,342.00 L 285.00,342.50 L 285.50,343.00 L 285.50,344.00 L 285.50,345.00 L 285.50,346.00 L 286.00,346.50 L 286.50,347.00 L 286.50,348.00 L 286.50,349.00 L 286.50,350.00 L 286.50,351.00 L 286.50,352.00 L 286.00,352.50 L 285.50,353.00 L 285.50,354.00 L 285.50,355.00 L 285.00,355.50 L 284.50,356.00 L 284.50,357.00 L 284.00,357.50 L 283.50,358.00 L 283.50,359.00 L 283.00,359.50 L 282.00,359.50 L 281.50,360.00 L 281.50,361.00 L 281.00,361.50 L 280.00,361.50 L 279.50,362.00 L 279.00,362.50 L 278.50,363.00 L 278.00,363.50 L 277.00,363.50 L 276.00,363.50 L 275.50,364.00 L 275.00,364.50 L 274.00,364.50 L 273.50,365.00 L 273.00,365.50 Z" fill="#b8860b" stroke="none" /><path d="M 335.00,364.50 L 334.00,364.50 L 333.00,364.50 L 332.00,364.50 L 331.00,364.50 L 330.00,364.50 L 329.50,364.00 L 329.50,363.00 L 329.50,362.00 L 329.50,361.00 L 329.50,360.00 L 329.50,359.00 L 329.50,358.00 L 329.50,357.00 L 329.50,356.00 L 329.50,355.00 L 329.50,354.00 L 329.50,353.00 L 329.50,352.00 L 329.50,351.00 L 329.50,350.00 L 329.50,349.00 L 329.50,348.00 L 329.50,347.00 L 329.50,346.00 L 329.50,345.00 L 329.00,344.50 L 328.50,345.00 L 328.50,346.00 L 328.50,347.00 L 328.00,347.50 L 327.50,348.00 L 327.50,349.00 L 327.00,349.50 L 326.50,350.00 L 326.50,351.00 L 326.50,352.00 L 326.00,352.50 L 325.50,353.00 L 325.50,354.00 L 325.00,354.50 L 324.50,355.00 L 324.50,356.00 L 324.50,357.00 L 324.00,357.50 L 323.50,358.00 L 323.50,359.00 L 323.00,359.50 L 322.50,360.00 L 322.50,361.00 L 322.50,362.00 L 322.00,362.50 L 321.50,363.00 L 321.50,364.00 L 321.00,364.50 L 320.00,364.50 L 319.00,364.50 L 318.00,364.50 L 317.00,364.50 L 316.50,364.00 L 316.50,363.00 L 316.00,362.50 L 315.50,362.00 L 315.00,361.50 L 314.50,361.00 L 314.50,360.00 L 314.50,359.00 L 314.50,358.00 L 314.00,357.50 L 313.50,357.00 L 313.50,356.00 L 313.00,355.50 L 312.50,355.00 L 312.50,354.00 L 312.50,353.00 L 312.00,352.50 L 311.50,352.00 L 311.50,351.00 L 311.00,350.50 L 310.50,350.00 L 310.50,349.00 L 310.00,348.50 L 309.50,348.00 L 309.50,347.00 L 309.50,346.00 L 309.00,345.50 L 308.50,346.00 L 308.50,347.00 L 308.50,348.00 L 308.50,349.00 L 308.50,350.00 L 308.50,351.00 L 308.50,352.00 L 308.50,353.00 L 308.50,354.00 L 308.50,355.00 L 308.50,356.00 L 308.50,357.00 L 308.50,358.00 L 308.50,359.00 L 308.50,360.00 L 308.50,361.00 L 308.50,362.00 L 308.50,363.00 L 308.50,364.00 L 308.00,364.50 L 307.00,364.50 L 306.00,364.50 L 305.00,364.50 L 304.00,364.50 L 303.00,364.50 L 302.50,364.00 L 302.50,363.00 L 302.50,362.00 L 302.50,361.00 L 302.50,360.00 L 302.50,359.00 L 302.50,358.00 L 302.50,357.00 L 302.50,356.00 L 302.50,355.00 L 302.50,354.00 L 302.50,353.00 L 302.50,352.00 L 302.50,351.00 L 302.50,350.00 L 302.50,349.00 L 302.50,348.00 L 302.50,347.00 L 302.50,346.00 L 302.50,345.00 L 302.50,344.00 L 302.50,343.00 L 302.50,342.00 L 302.50,341.00 L 302.50,340.00 L 302.50,339.00 L 302.50,338.00 L 302.50,337.00 L 302.50,336.00 L 302.50,335.00 L 303.00,334.50 L 303.50,334.00 L 304.00,333.50 L 305.00,333.50 L 306.00,333.50 L 307.00,333.50 L 308.00,333.50 L 309.00,333.50 L 309.50,334.00 L 310.00,334.50 L 310.50,335.00 L 311.00,335.50 L 311.50,336.00 L 311.50,337.00 L 311.50,338.00 L 312.00,338.50 L 312.50,339.00 L 312.50,340.00 L 313.00,340.50 L 313.50,341.00 L 313.50,342.00 L 313.50,343.00 L 314.00,343.50 L 314.50,344.00 L 314.50,345.00 L 315.00,345.50 L 315.50,346.00 L 315.50,347.00 L 316.00,347.50 L 316.50,348.00 L 316.50,349.00 L 316.50,350.00 L 317.00,350.50 L 317.50,351.00 L 317.50,352.00 L 318.00,352.50 L 318.50,353.00 L 318.50,354.00 L 319.00,354.50 L 319.50,354.00 L 319.50,353.00 L 319.50,352.00 L 320.00,351.50 L 320.50,351.00 L 320.50,350.00 L 321.00,349.50 L 321.50,349.00 L 321.50,348.00 L 321.50,347.00 L 322.00,346.50 L 322.50,346.00 L 322.50,345.00 L 323.00,344.50 L 323.50,344.00 L 323.50,343.00 L 324.00,342.50 L 324.50,342.00 L 324.50,341.00 L 324.50,340.00 L 325.00,339.50 L 325.50,339.00 L 325.50,338.00 L 326.00,337.50 L 326.50,337.00 L 326.50,336.00 L 327.00,335.50 L 327.50,335.00 L 327.50,334.00 L 328.00,333.50 L 329.00,333.50 L 330.00,333.50 L 331.00,333.50 L 332.00,333.50 L 333.00,333.50 L 334.00,333.50 L 334.50,334.00 L 335.00,334.50 L 335.50,335.00 L 335.50,336.00 L 335.50,337.00 L 335.50,338.00 L 335.50,339.00 L 335.50,340.00 L 335.50,341.00 L 335.50,342.00 L 335.50,343.00 L 335.50,344.00 L 335.50,345.00 L 335.50,346.00 L 335.50,347.00 L 335.50,348.00 L 335.50,349.00 L 335.50,350.00 L 335.50,351.00 L 335.50,352.00 L 335.50,353.00 L 335.50,354.00 L 335.50,355.00 L 335.50,356.00 L 335.50,357.00 L 335.50,358.00 L 335.50,359.00 L 335.50,360.00 L 335.50,361.00 L 335.50,362.00 L 335.50,363.00 L 335.50,364.00 L 335.00,364.50 Z" fill="#b8860b" stroke="none" /><path d="M 369.00,364.50 L 368.00,364.50 L 367.00,364.50 L 366.00,364.50 L 365.00,364.50 L 364.00,364.50 L 363.00,364.50 L 362.00,364.50 L 361.00,364.50 L 360.00,364.50 L 359.00,364.50 L 358.00,364.50 L 357.00,364.50 L 356.00,364.50 L 355.00,364.50 L 354.00,364.50 L 353.00,364.50 L 352.00,364.50 L 351.50,364.00 L 351.50,363.00 L 351.50,362.00 L 351.50,361.00 L 351.50,360.00 L 351.50,359.00 L 351.50,358.00 L 351.50,357.00 L 351.50,356.00 L 351.50,355.00 L 351.50,354.00 L 351.50,353.00 L 351.50,352.00 L 351.50,351.00 L 351.50,350.00 L 351.50,349.00 L 351.50,348.00 L 351.50,347.00 L 351.50,346.00 L 351.50,345.00 L 351.50,344.00 L 351.50,343.00 L 351.50,342.00 L 351.50,341.00 L 351.50,340.00 L 351.50,339.00 L 351.50,338.00 L 351.50,337.00 L 351.50,336.00 L 351.50,335.00 L 352.00,334.50 L 352.50,334.00 L 353.00,333.50 L 354.00,333.50 L 355.00,333.50 L 356.00,333.50 L 357.00,333.50 L 358.00,333.50 L 359.00,333.50 L 360.00,333.50 L 361.00,333.50 L 362.00,333.50 L 363.00,333.50 L 364.00,333.50 L 365.00,333.50 L 366.00,333.50 L 367.00,333.50 L 368.00,333.50 L 368.50,334.00 L 369.00,334.50 L 369.50,335.00 L 369.50,336.00 L 369.50,337.00 L 369.50,338.00 L 369.50,339.00 L 369.00,339.50 L 368.00,339.50 L 367.00,339.50 L 366.00,339.50 L 365.00,339.50 L 364.00,339.50 L 363.00,339.50 L 362.00,339.50 L 361.00,339.50 L 360.00,339.50 L 359.00,339.50 L 358.50,340.00 L 358.50,341.00 L 358.50,342.00 L 358.50,343.00 L 358.50,344.00 L 358.50,345.00 L 358.50,346.00 L 359.00,346.50 L 360.00,346.50 L 361.00,346.50 L 362.00,346.50 L 363.00,346.50 L 364.00,346.50 L 365.00,346.50 L 366.00,346.50 L 367.00,346.50 L 368.00,346.50 L 369.00,346.50 L 369.50,347.00 L 369.50,348.00 L 369.50,349.00 L 369.50,350.00 L 369.50,351.00 L 369.00,351.50 L 368.00,351.50 L 367.00,351.50 L 366.00,351.50 L 365.00,351.50 L 364.00,351.50 L 363.00,351.50 L 362.00,351.50 L 361.00,351.50 L 360.00,351.50 L 359.00,351.50 L 358.50,352.00 L 358.50,353.00 L 358.50,354.00 L 358.50,355.00 L 358.50,356.00 L 358.50,357.00 L 358.50,358.00 L 358.50,359.00 L 359.00,359.50 L 360.00,359.50 L 360.50,359.00 L 361.00,358.50 L 361.50,359.00 L 362.00,359.50 L 363.00,359.50 L 364.00,359.50 L 365.00,359.50 L 366.00,359.50 L 367.00,359.50 L 368.00,359.50 L 369.00,359.50 L 369.50,360.00 L 369.50,361.00 L 369.50,362.00 L 369.50,363.00 L 369.50,364.00 L 369.00,364.50 Z" fill="#b8860b" stroke="none" /><path d="M 396.00,365.50 L 395.00,365.50 L 394.00,365.50 L 393.00,365.50 L 392.00,365.50 L 391.00,365.50 L 390.50,365.00 L 390.00,364.50 L 389.00,364.50 L 388.50,364.00 L 388.00,363.50 L 387.00,363.50 L 386.50,363.00 L 386.00,362.50 L 385.50,362.00 L 385.50,361.00 L 385.00,360.50 L 384.50,360.00 L 384.00,359.50 L 383.50,359.00 L 383.50,358.00 L 383.50,357.00 L 383.50,356.00 L 383.50,355.00 L 384.00,354.50 L 384.50,354.00 L 385.00,353.50 L 386.00,353.50 L 387.00,353.50 L 388.00,353.50 L 388.50,354.00 L 389.00,354.50 L 389.50,355.00 L 389.50,356.00 L 389.50,357.00 L 390.00,357.50 L 390.50,358.00 L 391.00,358.50 L 391.50,359.00 L 392.00,359.50 L 393.00,359.50 L 394.00,359.50 L 395.00,359.50 L 395.50,359.00 L 396.00,358.50 L 396.50,358.00 L 397.00,357.50 L 397.50,357.00 L 397.50,356.00 L 398.00,355.50 L 398.50,355.00 L 398.00,354.50 L 397.50,354.00 L 397.00,353.50 L 396.50,353.00 L 396.00,352.50 L 395.00,352.50 L 394.50,352.00 L 394.00,351.50 L 393.00,351.50 L 392.50,351.00 L 392.00,350.50 L 391.00,350.50 L 390.00,350.50 L 389.00,350.50 L 388.50,350.00 L 388.00,349.50 L 387.50,349.00 L 387.00,348.50 L 386.50,348.00 L 386.00,347.50 L 385.50,347.00 L 385.50,346.00 L 385.00,345.50 L 384.50,345.00 L 384.50,344.00 L 384.00,343.50 L 383.50,343.00 L 383.50,342.00 L 384.00,341.50 L 384.50,341.00 L 384.50,340.00 L 385.00,339.50 L 385.50,339.00 L 385.50,338.00 L 385.50,337.00 L 386.00,336.50 L 386.50,336.00 L 387.00,335.50 L 387.50,335.00 L 388.00,334.50 L 389.00,334.50 L 389.50,334.00 L 390.00,333.50 L 391.00,333.50 L 392.00,333.50 L 393.00,333.50 L 394.00,333.50 L 395.00,333.50 L 396.00,333.50 L 397.00,333.50 L 397.50,334.00 L 398.00,334.50 L 399.00,334.50 L 399.50,335.00 L 400.00,335.50 L 400.50,336.00 L 401.00,336.50 L 401.50,337.00 L 402.00,337.50 L 402.50,338.00 L 402.50,339.00 L 402.50,340.00 L 403.00,340.50 L 403.50,341.00 L 403.50,342.00 L 403.00,342.50 L 402.50,343.00 L 402.00,343.50 L 401.00,343.50 L 400.00,343.50 L 399.00,343.50 L 398.00,343.50 L 397.50,343.00 L 397.00,342.50 L 396.50,342.00 L 396.50,341.00 L 396.50,340.00 L 396.00,339.50 L 395.00,339.50 L 394.00,339.50 L 393.00,339.50 L 392.00,339.50 L 391.50,340.00 L 391.00,340.50 L 390.50,341.00 L 390.50,342.00 L 390.50,343.00 L 391.00,343.50 L 391.50,344.00 L 392.00,344.50 L 393.00,344.50 L 393.50,345.00 L 394.00,345.50 L 395.00,345.50 L 395.50,346.00 L 396.00,346.50 L 397.00,346.50 L 398.00,346.50 L 399.00,346.50 L 399.50,347.00 L 400.00,347.50 L 400.50,348.00 L 401.00,348.50 L 401.50,349.00 L 402.00,349.50 L 402.50,350.00 L 402.50,351.00 L 403.00,351.50 L 403.50,352.00 L 404.00,352.50 L 404.50,353.00 L 404.50,354.00 L 404.50,355.00 L 404.50,356.00 L 404.50,357.00 L 404.00,357.50 L 403.50,358.00 L 403.50,359.00 L 403.00,359.50 L 402.50,360.00 L 402.50,361.00 L 402.00,361.50 L 401.50,362.00 L 401.00,362.50 L 400.50,363.00 L 400.00,363.50 L 399.00,363.50 L 398.50,364.00 L 398.00,364.50 L 397.00,364.50 L 396.50,365.00 L 396.00,365.50 Z" fill="#b8860b" stroke="none" /><path d="M 272.50,359.00 L 273.00,358.50 L 274.00,358.50 L 274.50,358.00 L 275.00,357.50 L 276.00,357.50 L 276.50,357.00 L 277.00,356.50 L 277.50,356.00 L 278.00,355.50 L 278.50,355.00 L 278.50,354.00 L 279.00,353.50 L 279.50,353.00 L 279.50,352.00 L 279.50,351.00 L 280.00,350.50 L 280.50,350.00 L 280.50,349.00 L 280.50,348.00 L 280.00,347.50 L 279.50,347.00 L 279.50,346.00 L 279.50,345.00 L 279.00,344.50 L 278.50,344.00 L 278.00,343.50 L 277.50,343.00 L 277.00,342.50 L 276.50,342.00 L 276.00,341.50 L 275.50,341.00 L 275.00,340.50 L 274.00,340.50 L 273.50,340.00 L 273.00,339.50 L 272.00,339.50 L 271.00,339.50 L 270.00,339.50 L 269.00,339.50 L 268.00,339.50 L 267.00,339.50 L 266.00,339.50 L 265.50,340.00 L 265.00,340.50 L 264.50,341.00 L 264.00,341.50 L 263.00,341.50 L 262.50,342.00 L 262.50,343.00 L 262.00,343.50 L 261.50,344.00 L 261.00,344.50 L 260.50,345.00 L 260.50,346.00 L 260.50,347.00 L 260.00,347.50 L 259.50,348.00 L 259.50,349.00 L 259.50,350.00 L 259.50,351.00 L 260.00,351.50 L 260.50,352.00 L 260.50,353.00 L 260.50,354.00 L 261.00,354.50 L 261.50,355.00 L 262.00,355.50 L 262.50,356.00 L 263.00,356.50 L 263.50,357.00 L 264.00,357.50 L 265.00,357.50 L 265.50,358.00 L 266.00,358.50 L 267.00,358.50 L 267.50,359.00 L 268.00,359.50 L 269.00,359.50 L 270.00,359.50 L 271.00,359.50 L 272.00,359.50 L 272.50,359.00 Z" fill="#b8860b" stroke="none" /></svg>